<?xml version="1.0" encoding="UTF-8"?>
<svg width="254px" height="216px" viewBox="0 0 254 216" version="1.1" xmlns="http://www.w3.org/2000/svg" xmlns:xlink="http://www.w3.org/1999/xlink" style="background: #407ABD;">
    <!-- Generator: Sketch 39.1 (31720) - http://www.bohemiancoding.com/sketch -->
    <title>로고</title>
    <desc>Created with Sketch.</desc>
    <defs>
        <polygon id="path-1" points="253.9753 0.271 0.0003 0.271 0.0003 214.9995 253.9753 214.9995 253.9753 0.271"></polygon>
    </defs>
    <g id="Symbols" stroke="none" stroke-width="1" fill="none" fill-rule="evenodd">
        <g id="로고">
            <g>
                <path d="M63.6054,90.0835 C62.7594,89.5175 61.7434,89.0485 60.5664,88.6855 C59.3874,88.3195 58.0814,88.0125 56.6434,87.7515 C56.0424,87.6445 55.5504,87.5375 55.1654,87.4315 C54.7794,87.3265 54.4734,87.2105 54.2474,87.0925 C54.0224,86.9775 53.8674,86.8535 53.7824,86.7255 C53.6954,86.5945 53.6534,86.4565 53.6534,86.3065 L53.6534,86.2415 C53.6534,85.9615 53.7864,85.7395 54.0534,85.5645 C54.3254,85.3945 54.7354,85.3095 55.2924,85.3095 C56.3434,85.3095 57.4614,85.4875 58.6544,85.8395 C59.8424,86.1905 60.9744,86.7555 62.0464,87.5255 L65.7114,82.4495 C64.4054,81.4165 62.9314,80.6475 61.2904,80.1315 C59.6504,79.6165 57.7374,79.3615 55.5504,79.3615 C54.0074,79.3615 52.6404,79.5525 51.4494,79.9385 C50.2604,80.3245 49.2634,80.8625 48.4604,81.5445 C47.6554,82.2325 47.0444,83.0345 46.6264,83.9615 C46.2074,84.8805 45.9994,85.8765 45.9994,86.9455 L45.9994,87.0115 C45.9994,88.2145 46.2564,89.2185 46.7704,90.0185 C47.2864,90.8255 47.9774,91.4955 48.8454,92.0275 C49.7124,92.5665 50.7184,93.0065 51.8684,93.3465 C53.0144,93.6895 54.2214,93.9875 55.4854,94.2455 C56.6864,94.4865 57.5044,94.7105 57.9454,94.9255 C58.3844,95.1385 58.6044,95.4055 58.6044,95.7265 L58.6044,95.7895 C58.6044,96.0915 58.4564,96.3275 58.1564,96.5005 C57.8544,96.6715 57.3624,96.7585 56.6734,96.7585 C55.3464,96.7585 54.0074,96.5535 52.6554,96.1455 C51.3054,95.7395 50.0174,95.0635 48.7974,94.1185 L44.7774,98.9115 C46.2134,100.1775 47.9234,101.1285 49.9074,101.7555 C51.8894,102.3895 54.0274,102.7065 56.3214,102.7065 C57.8204,102.7065 59.1874,102.5305 60.4224,102.1755 C61.6554,101.8225 62.7004,101.3205 63.5574,100.6635 C64.4134,100.0075 65.0794,99.2105 65.5504,98.2695 C66.0224,97.3265 66.2584,96.2635 66.2584,95.0855 L66.2584,95.0195 C66.2584,93.8855 66.0284,92.9195 65.5684,92.1245 C65.1064,91.3295 64.4534,90.6545 63.6054,90.0835" id="Fill-1" fill="#FEFEFE"></path>
                <polygon id="Fill-3" fill="#FEFEFE" points="75.1982 94.2153 82.0802 94.2153 82.0802 102.2893 89.6052 102.2893 89.6052 79.7773 82.0802 79.7773 82.0802 87.7213 75.1982 87.7213 75.1982 79.7773 67.6722 79.7773 67.6722 102.2893 75.1982 102.2893"></polygon>
                <path d="M108.3183,91.0991 C108.3183,91.7631 108.2123,92.3961 107.9973,92.9941 C107.7823,93.5961 107.4733,94.1261 107.0653,94.5861 C106.6573,95.0471 106.1643,95.4171 105.5873,95.6921 C105.0093,95.9741 104.3643,96.1131 103.6573,96.1131 C102.9273,96.1131 102.2733,95.9741 101.6963,95.6921 C101.1163,95.4171 100.6223,95.0401 100.2153,94.5681 C99.8083,94.1001 99.4943,93.5561 99.2663,92.9471 C99.0413,92.3331 98.9303,91.6971 98.9303,91.0311 L98.9303,90.9691 C98.9303,90.3071 99.0363,89.6731 99.2523,89.0721 C99.4653,88.4691 99.7753,87.9391 100.1823,87.4791 C100.5913,87.0171 101.0863,86.6471 101.6633,86.3721 C102.2403,86.0911 102.8843,85.9531 103.5923,85.9531 C104.3213,85.9531 104.9743,86.0911 105.5543,86.3721 C106.1343,86.6471 106.6253,87.0231 107.0343,87.4941 C107.4393,87.9671 107.7573,88.5071 107.9813,89.1191 C108.2073,89.7321 108.3183,90.3701 108.3183,91.0311 L108.3183,91.0991 Z M114.9593,95.6191 C115.5913,94.1881 115.9083,92.6601 115.9083,91.0311 L115.9083,90.9691 C115.9083,89.3421 115.5983,87.8121 114.9753,86.3841 C114.3533,84.9591 113.4913,83.7201 112.3883,82.6691 C111.2853,81.6231 109.9853,80.7981 108.4953,80.1971 C107.0063,79.5971 105.3933,79.2921 103.6573,79.2921 C101.9193,79.2921 100.3013,79.6011 98.8013,80.2111 C97.3003,80.8231 95.9973,81.6581 94.8943,82.7201 C93.7873,83.7831 92.9233,85.0251 92.2883,86.4501 C91.6563,87.8771 91.3413,89.4051 91.3413,91.0311 L91.3413,91.0991 C91.3413,92.7251 91.6513,94.2531 92.2733,95.6811 C92.8943,97.1051 93.7573,98.3451 94.8593,99.3951 C95.9663,100.4451 97.2623,101.2671 98.7523,101.8691 C100.2423,102.4701 101.8553,102.7691 103.5923,102.7691 C105.3303,102.7691 106.9483,102.4671 108.4473,101.8541 C109.9483,101.2421 111.2513,100.4051 112.3533,99.3471 C113.4583,98.2851 114.3293,97.0421 114.9593,95.6191 L114.9593,95.6191 Z" id="Fill-5" fill="#FEFEFE"></path>
                <polygon id="Fill-7" fill="#FEFEFE" points="144.3681 79.7768 141.1841 90.5808 137.5521 79.7128 131.0551 79.7128 127.4211 90.5808 124.2381 79.7768 116.3601 79.7768 123.7221 102.4478 130.2821 102.4478 134.2371 91.2598 138.1921 102.4478 144.7541 102.4478 152.1191 79.7768"></polygon>
                <polygon id="Fill-9" fill="#FEFEFE" points="160.9287 79.7768 160.9287 102.2898 168.2597 102.2898 168.2597 91.1298 173.4547 99.1338 173.5827 99.1338 178.7757 91.1298 178.7757 102.2898 186.2697 102.2898 186.2697 79.7768 178.4227 79.7768 173.5987 87.6898 168.7757 79.7768"></polygon>
                <polygon id="Fill-11" fill="#FEFEFE" points="207.8779 96.1128 195.9139 96.1128 195.9139 93.6708 206.9129 93.6708 206.9129 88.2358 195.9139 88.2358 195.9139 85.9508 207.7169 85.9508 207.7169 79.7798 188.5219 79.7798 188.5219 102.2898 207.8779 102.2898"></polygon>
                <polygon id="Fill-13" fill="#FEFEFE" points="45.3564 120.1645 51.9814 120.1645 51.9814 136.3075 59.5044 136.3075 59.5044 120.1645 66.1294 120.1645 66.1294 113.7985 45.3564 113.7985"></polygon>
                <polygon id="Fill-15" fill="#FEFEFE" points="81.9199 136.3071 89.4439 136.3071 89.4439 113.7961 81.9199 113.7961 81.9199 121.7421 75.0369 121.7421 75.0369 113.7961 67.5119 113.7961 67.5119 136.3071 75.0369 136.3071 75.0369 128.2341 81.9199 128.2341"></polygon>
                <polygon id="Fill-17" fill="#FEFEFE" points="110.8926 119.9712 110.8926 113.7962 91.6946 113.7962 91.6946 136.3072 111.0526 136.3072 111.0526 130.1312 99.0926 130.1312 99.0926 127.6902 110.0906 127.6902 110.0906 122.2552 99.0926 122.2552 99.0926 119.9712"></polygon>
                <path d="M130.0586,127.9458 L132.1166,122.4778 L134.1746,127.9458 L130.0586,127.9458 Z M128.4486,113.6358 L118.9626,136.3068 L127.0016,136.3068 L128.1606,133.2828 L136.0396,133.2828 L137.2296,136.3068 L145.3976,136.3068 L135.9096,113.6358 L128.4486,113.6358 Z" id="Fill-19" fill="#FEFEFE"></path>
                <path d="M153.5332,119.812 L155.5922,119.812 C156.5982,119.812 157.3822,120.019 157.9382,120.438 C158.4952,120.853 158.7742,121.474 158.7742,122.285 L158.7742,122.35 C158.7742,123.165 158.4782,123.782 157.8902,124.201 C157.3002,124.617 156.5232,124.827 155.5582,124.827 L153.5332,124.827 L153.5332,119.812 Z M153.5332,130.197 L155.9742,130.197 C157.4992,130.197 158.8872,130.022 160.1402,129.665 C161.3942,129.313 162.4722,128.78 163.3742,128.074 C164.2712,127.367 164.9702,126.494 165.4642,125.455 C165.9552,124.416 166.2022,123.221 166.2022,121.87 L166.2022,121.804 C166.2022,120.474 165.9552,119.306 165.4642,118.298 C164.9702,117.292 164.2852,116.456 163.4052,115.792 C162.5252,115.125 161.4702,114.628 160.2392,114.295 C159.0042,113.963 157.6382,113.796 156.1372,113.796 L146.0082,113.796 L146.0082,136.307 L153.5332,136.307 L153.5332,130.197 Z" id="Fill-21" fill="#FEFEFE"></path>
                <path d="M180.2549,122.3501 C180.2549,123.1641 179.9599,123.7821 179.3709,124.2011 C178.7819,124.6171 178.0029,124.8271 177.0389,124.8271 L175.0139,124.8271 L175.0139,119.8121 L177.0719,119.8121 C178.0799,119.8121 178.8599,120.0191 179.4199,120.4381 C179.9779,120.8531 180.2549,121.4741 180.2549,122.2851 L180.2549,122.3501 Z M187.6829,121.8041 C187.6829,120.4761 187.4369,119.3061 186.9429,118.2981 C186.4499,117.2921 185.7669,116.4551 184.8859,115.7931 C184.0069,115.1241 182.9519,114.6281 181.7179,114.2951 C180.4849,113.9631 179.1189,113.7961 177.6199,113.7961 L167.4859,113.7961 L167.4859,136.3071 L175.0139,136.3071 L175.0139,130.1971 L177.4569,130.1971 C178.9799,130.1971 180.3679,130.0221 181.6229,129.6661 C182.8749,129.3131 183.9519,128.7831 184.8549,128.0741 C185.7559,127.3671 186.4499,126.4941 186.9429,125.4551 C187.4369,124.4151 187.6829,123.2211 187.6829,121.8701 L187.6829,121.8041 Z" id="Fill-23" fill="#FEFEFE"></path>
                <path d="M205.9336,124.103 C205.0856,123.536 204.0736,123.07 202.8946,122.705 C201.7136,122.339 200.4076,122.029 198.9706,121.771 C198.3696,121.664 197.8786,121.56 197.4926,121.45 C197.1066,121.344 196.7996,121.231 196.5736,121.116 C196.3496,120.996 196.1936,120.872 196.1106,120.744 C196.0216,120.614 195.9796,120.476 195.9796,120.325 L195.9796,120.259 C195.9796,119.984 196.1146,119.757 196.3806,119.585 C196.6516,119.414 197.0636,119.327 197.6196,119.327 C198.6686,119.327 199.7906,119.505 200.9806,119.858 C202.1696,120.212 203.2996,120.775 204.3736,121.548 L208.0386,116.468 C206.7316,115.436 205.2566,114.665 203.6166,114.15 C201.9776,113.636 200.0646,113.378 197.8786,113.378 C196.3346,113.378 194.9676,113.574 193.7766,113.958 C192.5876,114.343 191.5916,114.877 190.7876,115.567 C189.9826,116.252 189.3716,117.054 188.9536,117.979 C188.5356,118.899 188.3266,119.898 188.3266,120.969 L188.3266,121.032 C188.3266,122.233 188.5826,123.236 189.0966,124.04 C189.6126,124.842 190.3026,125.513 191.1716,126.048 C192.0396,126.585 193.0486,127.025 194.1966,127.367 C195.3406,127.708 196.5476,128.011 197.8126,128.267 C199.0126,128.505 199.8336,128.73 200.2736,128.944 C200.7116,129.158 200.9316,129.424 200.9316,129.746 L200.9316,129.811 C200.9316,130.111 200.7826,130.349 200.4826,130.518 C200.1806,130.69 199.6876,130.776 199.0036,130.776 C197.6746,130.776 196.3346,130.572 194.9826,130.165 C193.6326,129.757 192.3466,129.083 191.1236,128.139 L187.1066,132.929 C188.5386,134.198 190.2486,135.146 192.2336,135.776 C194.2156,136.408 196.3566,136.725 198.6486,136.725 C200.1506,136.725 201.5166,136.546 202.7496,136.194 C203.9816,135.841 205.0266,135.337 205.8836,134.682 C206.7426,134.029 207.4056,133.23 207.8776,132.286 C208.3486,131.343 208.5856,130.283 208.5856,129.105 L208.5856,129.042 C208.5856,127.904 208.3546,126.939 207.8946,126.146 C207.4326,125.353 206.7796,124.673 205.9336,124.103" id="Fill-25" fill="#FEFEFE"></path>
                <g id="Group-29" transform="translate(0.000000, 0.729000)">
                    <mask id="mask-2" fill="white">
                        <use xlink:href="#path-1"></use>
                    </mask>
                    <g id="Clip-28"></g>
                    <path d="M245.7373,107.8105 C245.7373,111.6415 244.3133,114.9685 241.3763,117.8615 L134.0943,203.9185 C132.1493,205.5165 129.6553,206.4105 126.9933,206.4105 C124.3613,206.4105 121.8913,205.5375 119.8433,203.8805 L119.6303,203.6965 L14.0923,118.7435 L12.5933,117.4395 C10.0093,114.8125 8.5893,111.3475 8.5893,107.6625 C8.5893,107.6515 8.5923,107.6445 8.5923,107.6355 C8.5923,107.6255 8.5893,107.6175 8.5893,107.6085 C8.5893,103.9215 10.0093,100.4565 12.5933,97.8315 L14.0923,96.5275 L119.6303,11.5745 L119.8433,11.3935 C121.8913,9.7355 124.3613,8.8605 126.9933,8.8605 C129.6553,8.8605 132.1493,9.7555 134.0943,11.3515 L241.0623,97.1465 C244.0993,99.8045 245.7373,103.5875 245.7373,107.4175 L245.7373,107.8105 Z M253.9753,107.6085 C253.9753,101.3595 251.4643,95.5485 246.9003,91.2425 L245.5793,90.0845 L139.8223,4.9485 L139.6593,4.8065 C136.0953,1.8815 131.5973,0.2705 126.9933,0.2705 C122.3933,0.2705 118.0593,2.1565 114.4993,5.0775 L8.6423,89.8895 L6.8383,91.4545 L6.6263,91.6535 C2.3523,95.9125 0.0003,101.5775 0.0003,107.6085 C0.0003,107.6175 0.0013,107.6255 0.0013,107.6355 C0.0013,107.6445 0.0003,107.6515 0.0003,107.6625 C0.0003,113.6945 2.3523,119.3605 6.6263,123.6175 L6.8383,123.8195 L8.6423,125.3845 L114.3383,210.4735 C117.8983,213.3935 122.3933,214.9995 126.9933,214.9995 C131.5973,214.9995 136.0953,213.3895 139.6593,210.4635 L139.8223,210.3225 L245.5793,125.1855 L246.9003,124.0305 C251.4643,119.7235 253.9753,113.9115 253.9753,107.6625 C253.9753,107.6515 253.9733,107.6445 253.9733,107.6355 C253.9733,107.6255 253.9753,107.6175 253.9753,107.6085 L253.9753,107.6085 Z" id="Fill-27" fill="#FEFEFE" mask="url(#mask-2)"></path>
                </g>
                <path d="M76.3359,75.3608 C75.8849,75.3608 75.4289,75.2278 75.0309,74.9498 C73.9959,74.2258 73.7419,72.7998 74.4639,71.7688 C86.4469,54.6018 106.0829,44.3518 126.9879,44.3518 C147.8919,44.3518 167.5249,54.5978 179.5089,71.7618 C180.2289,72.7968 179.9769,74.2198 178.9429,74.9438 C177.9059,75.6668 176.4839,75.4148 175.7599,74.3798 C164.6309,58.4368 146.3999,48.9218 126.9879,48.9218 C107.5739,48.9218 89.3429,58.4408 78.2119,74.3818 C77.7679,75.0188 77.0599,75.3608 76.3359,75.3608" id="Fill-30" fill="#FEFEFE"></path>
                <path d="M126.9873,172.3755 C106.0423,172.3755 86.3863,162.0955 74.4053,144.8825 C73.6843,143.8455 73.9413,142.4225 74.9753,141.6995 C76.0133,140.9775 77.4383,141.2365 78.1573,142.2705 C89.2863,158.2585 107.5363,167.8055 126.9873,167.8055 C146.4433,167.8055 164.6963,158.2585 175.8193,142.2655 C176.5403,141.2315 177.9643,140.9735 179.0013,141.6935 C180.0363,142.4155 180.2923,143.8415 179.5733,144.8755 C167.5933,162.0955 147.9363,172.3755 126.9873,172.3755" id="Fill-32" fill="#FEFEFE"></path>
            </g>
        </g>
    </g>
</svg>