<?xml version="1.0" encoding="UTF-8" standalone="no"?>
<svg width="27px" height="27px" viewBox="0 0 27 27" version="1.1" xmlns="http://www.w3.org/2000/svg" xmlns:xlink="http://www.w3.org/1999/xlink">
    <!-- Generator: sketchtool 40.3 (33839) - http://www.bohemiancoding.com/sketch -->
    <title>4625D01B-A7EC-4D75-8417-ED0E1817C805</title>
    <desc>Created with sketchtool.</desc>
    <defs></defs>
    <g id="Welcome" stroke="none" stroke-width="1" fill="none" fill-rule="evenodd">
        <g id="M_나의-프로필_수정" transform="translate(-58.000000, -145.000000)">
            <g id="전화번호" transform="translate(58.000000, 132.000000)">
                <g transform="translate(0.000000, 13.000000)">
                    <rect id="Rectangle-6-Copy-2" fill="#D8D8D8" x="0" y="0" width="27" height="27"></rect>
                    <path d="M16.2977472,19.4899648 C14.8227472,19.3566315 13.2177472,18.5741315 11.9994138,17.7124648 C10.2085805,16.4457982 8.5310805,14.4866315 7.5535805,12.4074648 C6.86274717,10.9382982 6.70774717,9.1316315 7.73524717,7.79246483 C8.11524717,7.29746483 8.5260805,7.03329816 9.1435805,7.00246483 C10.0002472,6.96079816 10.1202472,7.45079816 10.4144138,8.2141315 C10.6335805,8.78496483 10.9260805,9.36746483 11.0894138,9.9591315 C11.3952472,11.0632982 10.3260805,11.1091315 10.1910805,12.0116315 C10.1069138,12.5807982 10.7969138,13.3441315 11.1085805,13.7499648 C11.7194138,14.5449648 12.4535805,15.2307982 13.2819138,15.7524648 C13.7560805,16.0516315 14.5219138,16.5907982 15.0652472,16.2932982 C15.9019138,15.8349648 15.8227472,14.4241315 16.9927472,14.9016315 C17.5985805,15.1482982 18.1852472,15.5041315 18.7635805,15.8157982 C19.6577472,16.2966315 19.6160805,16.7949648 19.2752472,17.8299648 C18.8894138,19.0024648 17.3777472,19.5874648 16.2977472,19.4899648 Z" id="call-[#192]" fill="#FFFFFF"></path>
                </g>
            </g>
        </g>
    </g>
</svg>