<?xml version="1.0" encoding="UTF-8" standalone="no"?>
<svg width="36px" height="36px" viewBox="0 0 36 36" version="1.1" xmlns="http://www.w3.org/2000/svg" xmlns:xlink="http://www.w3.org/1999/xlink">
    <!-- Generator: sketchtool 40.3 (33839) - http://www.bohemiancoding.com/sketch -->
    <title>307E2405-A343-4AE1-8E2D-C419BA86CF3F</title>
    <desc>Created with sketchtool.</desc>
    <defs></defs>
    <g id="Welcome" stroke="none" stroke-width="1" fill="none" fill-rule="evenodd">
        <g id="나의-프로필_수정-" transform="translate(-242.000000, -144.000000)" fill="#FFFFFF">
            <g id="사진-수정" transform="translate(220.000000, 120.000000)">
                <path d="M41.800165,40.200135 L47.20021,40.200135 L47.20021,43.800165 L41.800165,43.800165 L41.800165,49.20021 L38.200135,49.20021 L38.200135,43.800165 L32.80009,43.800165 L32.80009,40.200135 L38.200135,40.200135 L38.200135,34.80009 L41.800165,34.80009 L41.800165,40.200135 Z M40.00015,56.40027 C32.0602838,56.40027 25.60003,49.9400162 25.60003,42.00015 C25.60003,34.0602838 32.0602838,27.60003 40.00015,27.60003 C47.9400162,27.60003 54.40027,34.0602838 54.40027,42.00015 C54.40027,49.9400162 47.9400162,56.40027 40.00015,56.40027 L40.00015,56.40027 Z M40.00015,24 C30.0586672,24 22,32.0586672 22,42.00015 C22,51.9416328 30.0586672,60.0003 40.00015,60.0003 C49.9416328,60.0003 58.0003,51.9416328 58.0003,42.00015 C58.0003,32.0586672 49.9416328,24 40.00015,24 L40.00015,24 Z" id="plus_circle-[#1441]"></path>
            </g>
        </g>
    </g>
</svg>