<?xml version="1.0" encoding="UTF-8" standalone="no"?>
<svg width="32px" height="32px" viewBox="0 0 32 32" version="1.1" xmlns="http://www.w3.org/2000/svg" xmlns:xlink="http://www.w3.org/1999/xlink">
    <!-- Generator: sketchtool 40.3 (33839) - http://www.bohemiancoding.com/sketch -->
    <title>4ABFE968-3F30-4DB2-8102-415FD5479EBE</title>
    <desc>Created with sketchtool.</desc>
    <defs></defs>
    <g id="Welcome" stroke="none" stroke-width="1" fill="none" fill-rule="evenodd">
        <g id="나의-프로필" transform="translate(-1188.000000, -669.000000)">
            <g id="page-nation" transform="translate(1187.000000, 389.000000)">
                <g id="아래-화살표" transform="translate(1.000000, 280.000000)">
                    <rect id="Rectangle-5" fill="#D8D8D8" x="0" y="0" width="32" height="32"></rect>
                    <path d="M9.20787261,12.2708758 L9.20787261,12.2708758 C8.93070913,12.5706731 8.93070913,13.0560226 9.20787261,13.3550531 L15.0844491,19.6952667 C15.6394868,20.2948612 16.5399128,20.2948612 17.0949504,19.6952667 L23.0148781,13.3090484 C23.2891989,13.0123181 23.2927523,12.5331026 23.0219849,12.2325386 C22.7455321,11.9258406 22.289989,11.9220069 22.0092722,12.2241044 L16.5925028,18.0690007 C16.3146286,18.368798 15.8647709,18.368798 15.5868968,18.0690007 L10.2127679,12.2708758 C9.93560442,11.9710786 9.48574677,11.9710786 9.20787261,12.2708758" id="arrow_down-[#338]-copy" fill="#FFFFFF" transform="translate(16.111430, 16.072481) scale(-1, 1) translate(-16.111430, -16.072481) "></path>
                </g>
            </g>
        </g>
    </g>
</svg>