<svg width="50" height="50" xmlns="http://www.w3.org/2000/svg">
 <title>Png 48px Solid - 70 Basic Icons</title>

 <g>
  <title>background</title>
  <rect x="-1" y="-1" width="52" height="52" id="canvas_background" fill="none"/>
 </g>
 <g>
  <title>Layer 1</title>
  <g stroke="null" id="svg_1">
   <path stroke="null" d="m24.999999,1c-13.30909,0 -23.999999,10.690909 -23.999999,23.999999s10.690909,23.999999 23.999999,23.999999s23.999999,-10.690909 23.999999,-23.999999s-10.690909,-23.999999 -23.999999,-23.999999zm9.927272,25.854545l-13.090908,8.727272c-0.981818,0.654545 -2.4,0.436364 -3.054545,-0.654545c-0.218182,-0.327273 -0.327273,-0.763636 -0.327273,-1.2l0,-17.454545c0,-1.2 0.981818,-2.181818 2.181818,-2.181818c0.436364,0 0.872727,0.109091 1.2,0.327273l13.090908,8.727272c0.981818,0.654545 1.309091,2.072727 0.545455,3.054545c-0.109091,0.218182 -0.327273,0.436364 -0.545455,0.654545z" id="svg_2" fill="#407abd"/>
  </g>
 </g>
</svg>