<svg width="50" height="50" xmlns="http://www.w3.org/2000/svg">
 <title>Png 48px Solid - 70 Basic Icons</title>

 <g>
  <title>background</title>
  <rect fill="none" id="canvas_background" height="52" width="52" y="-1" x="-1"/>
 </g>
 <g>
  <title>Layer 1</title>
  <g id="svg_1">
   <path fill="#407abd" id="svg_2" d="m25,3c-12.2,0 -22,9.8 -22,22s9.8,22 22,22s22,-9.8 22,-22s-9.8,-22 -22,-22zm9.1,23.7l-12,8c-0.9,0.6 -2.2,0.4 -2.8,-0.6c-0.2,-0.3 -0.3,-0.7 -0.3,-1.1l0,-16c0,-1.1 0.9,-2 2,-2c0.4,0 0.8,0.1 1.1,0.3l12,8c0.9,0.6 1.2,1.9 0.5,2.8c-0.1,0.2 -0.3,0.4 -0.5,0.6z"/>
  </g>
 </g>
</svg>