<?xml version="1.0" encoding="UTF-8" standalone="no"?>
<svg width="106px" height="38px" viewBox="0 0 106 38" version="1.1" xmlns="http://www.w3.org/2000/svg" xmlns:xlink="http://www.w3.org/1999/xlink">
    <!-- Generator: sketchtool 40.3 (33839) - http://www.bohemiancoding.com/sketch -->
    <title>EFE601F8-7000-4806-841B-2E9FBAE16F3F</title>
    <desc>Created with sketchtool.</desc>
    <defs></defs>
    <g id="Welcome" stroke="none" stroke-width="1" fill="none" fill-rule="evenodd">
        <g id="랜딩" transform="translate(-220.000000, -24.000000)" fill="#407ABD">
            <g id="로고" transform="translate(220.000000, 24.000000)">
                <path d="M12.1472556,7.34872168 C11.6014449,6.98774825 10.9459559,6.68863776 10.1865952,6.45713007 C9.42594412,6.22370909 8.58335693,6.02791608 7.6556078,5.86146014 C7.26786285,5.79321958 6.95044104,5.72497902 6.70205201,5.65737622 C6.45301782,5.59041119 6.25559693,5.51643077 6.10978935,5.44117483 C5.96462693,5.36783217 5.86462616,5.28874965 5.80978702,5.20711608 C5.75365755,5.12356923 5.72656057,5.03555804 5.72656057,4.93989371 L5.72656057,4.89843916 C5.72656057,4.71986573 5.81236769,4.57828252 5.98462709,4.46667413 C6.16011232,4.35825455 6.4246305,4.30404476 6.78398813,4.30404476 C7.46205791,4.30404476 8.183999,4.41756643 8.95303722,4.64205874 C9.71949478,4.86591329 10.449823,5.22624895 11.1420865,5.71732587 L13.5066209,2.48004476 C12.6633886,1.82123636 11.7124135,1.3307972 10.6536956,1.00171189 C9.59562285,0.673264336 8.36141973,0.510634965 6.95044104,0.510634965 C5.95494944,0.510634965 5.07300711,0.632447552 4.30461405,0.878623776 C3.53751132,1.1248 2.89428053,1.46791608 2.37621199,1.90286993 C1.85685312,2.34165035 1.46265651,2.85313566 1.192977,3.44434126 C0.922652322,4.03044476 0.788457732,4.66565594 0.788457732,5.34742378 L0.788457732,5.38951608 C0.788457732,6.15674406 0.95426547,6.79705734 1.28588095,7.30726713 C1.61878676,7.82194126 2.06459667,8.24924196 2.62460101,8.58853147 C3.18396019,8.93228531 3.83299749,9.2129007 4.57493873,9.42973986 C5.31429931,9.64849231 6.09301503,9.83854545 6.90850523,10.0030881 C7.68334995,10.1567888 8.21174115,10.2996476 8.49561432,10.4367664 C8.77884232,10.5726098 8.92077891,10.7428923 8.92077891,10.947614 L8.92077891,10.987793 C8.92077891,11.1803972 8.82529429,11.3309091 8.63174441,11.441242 C8.43690418,11.5502993 8.11948237,11.6057846 7.67496279,11.6057846 C6.81882711,11.6057846 5.95494944,11.4750434 5.08268461,11.2148364 C4.2117101,10.9559049 3.38073591,10.5247776 2.59363303,9.92209231 L6.45166292e-05,12.9788867 C0.926523319,13.7862937 2.02975769,14.3928056 3.30976762,14.7926825 C4.58848722,15.1970238 5.96785276,15.3991944 7.44786425,15.3991944 C8.41496853,15.3991944 9.29691086,15.2869483 10.0936912,15.0605427 C10.8891813,14.8354126 11.5633801,14.5152559 12.1162876,14.0962462 C12.6685499,13.6778741 13.0982307,13.1695776 13.402104,12.5694434 C13.7066225,11.9680336 13.8588817,11.2900923 13.8588817,10.5388084 L13.8588817,10.4967161 C13.8588817,9.77349371 13.7104935,9.15741538 13.413717,8.65039441 C13.1156502,8.14337343 12.6943566,7.71288392 12.1472556,7.34872168" id="Fill-1"></path>
                <polygon id="Fill-3" points="19.6265394 9.98382769 24.0665739 9.98382769 24.0665739 15.13312 28.9214503 15.13312 28.9214503 0.775178741 24.0665739 0.775178741 24.0665739 5.84219972 19.6265394 5.84219972 19.6265394 0.775178741 14.7710179 0.775178741 14.7710179 15.13312 19.6265394 15.13312"></polygon>
                <path d="M40.9945117,7.99643301 C40.9945117,8.41990713 40.9261241,8.82361063 40.7874133,9.20499245 C40.6487025,9.58892531 40.4493462,9.9269393 40.1861183,10.2203099 C39.9228905,10.5143183 39.6048235,10.7502903 39.2325625,10.925675 C38.8596564,11.1055239 38.4435241,11.1941729 37.9873916,11.1941729 C37.5164202,11.1941729 37.0944814,11.1055239 36.7222205,10.925675 C36.348024,10.7502903 36.0293119,10.509854 35.7667292,10.2088302 C35.5041465,9.91035748 35.3015643,9.56341483 35.1544664,9.17501762 C35.0093039,8.78343161 34.9376905,8.37781483 34.9376905,7.95306517 L34.9376905,7.91352392 C34.9376905,7.49132531 35.0060781,7.08698406 35.145434,6.70368895 C35.2828545,6.31911832 35.482856,5.98110434 35.7454387,5.68773371 C36.0093117,5.39308755 36.328669,5.15711552 36.70093,4.98173091 C37.0731909,4.80251972 37.488678,4.71450853 37.9454558,4.71450853 C38.415782,4.71450853 38.8370756,4.80251972 39.211272,4.98173091 C39.5854685,5.15711552 39.9022451,5.39691413 40.1661182,5.69730014 C40.4274105,5.99896168 40.6325734,6.34335329 40.7770906,6.73366378 C40.9228982,7.12461203 40.9945117,7.53150434 40.9945117,7.95306517 L40.9945117,7.99643301 Z M45.2790611,10.8791183 C45.6868062,9.96648056 45.8913239,8.99197986 45.8913239,7.95306517 L45.8913239,7.91352392 C45.8913239,6.87588476 45.6913223,5.90010853 45.2893837,4.98938406 C44.8880903,4.08057287 44.3319569,3.29038545 43.6203385,2.62009734 C42.9087201,1.95299804 42.0700039,1.4268442 41.1087061,1.04354909 C40.1480535,0.660891748 39.1074003,0.466374266 37.9873916,0.466374266 C36.8660925,0.466374266 35.8222135,0.663442797 34.854464,1.05247776 C33.8860694,1.44278825 33.0454177,1.97531972 32.3337993,2.65262322 C31.6196002,3.33056448 31.0621765,4.12266517 30.6524959,5.03147636 C30.2447508,5.94156308 30.0415235,6.91606378 30.0415235,7.95306517 L30.0415235,7.99643301 C30.0415235,9.03343441 30.241525,10.0079351 30.6428184,10.9186596 C31.0434667,11.826833 31.6002452,12.6176582 32.3112185,13.2873085 C33.0254176,13.9569589 33.8615531,14.4811994 34.8228509,14.8651323 C35.7841487,15.2484274 36.8248019,15.4391183 37.9454558,15.4391183 C39.0667548,15.4391183 40.1106339,15.2465141 41.0777381,14.8555659 C42.0461327,14.4652554 42.8867844,13.9314484 43.5977577,13.2566959 C44.3106665,12.5793924 44.8726063,11.786654 45.2790611,10.8791183 L45.2790611,10.8791183 Z" id="Fill-5"></path>
                <polygon id="Fill-7" points="64.2526277 0.775497622 62.1984182 7.66588084 59.8551742 0.734680839 55.6635287 0.734680839 53.3189944 7.66588084 51.2654301 0.775497622 46.18281 0.775497622 50.9325243 15.2342053 55.1648152 15.2342053 57.7164479 8.0989214 60.2680806 15.2342053 64.5016619 15.2342053 69.2533116 0.775497622"></polygon>
                <polygon id="Fill-9" points="74.9369686 0.775497622 74.9369686 15.1334389 79.6666828 15.1334389 79.6666828 8.01601231 83.0183217 13.1206613 83.100903 13.1206613 86.4512515 8.01601231 86.4512515 15.1334389 91.2861278 15.1334389 91.2861278 0.775497622 86.2235078 0.775497622 83.1112256 5.82211021 79.9995886 0.775497622"></polygon>
                <polygon id="Fill-11" points="105.22701 11.1939815 97.5082406 11.1939815 97.5082406 9.63656615 104.604425 9.63656615 104.604425 6.17032839 97.5082406 6.17032839 97.5082406 4.71304168 105.123138 4.71304168 105.123138 0.777410909 92.7391713 0.777410909 92.7391713 15.1334389 105.22701 15.1334389"></polygon>
                <polygon id="Fill-13" points="0.373615803 26.5332476 4.64784252 26.5332476 4.64784252 36.8286434 9.50142857 36.8286434 9.50142857 26.5332476 13.7750101 26.5332476 13.7750101 22.4732531 0.373615803 22.4732531"></polygon>
                <polygon id="Fill-15" points="23.9631537 36.8283883 28.8173849 36.8283883 28.8173849 22.4717225 23.9631537 22.4717225 23.9631537 27.5393813 19.5224741 27.5393813 19.5224741 22.4717225 14.6675977 22.4717225 14.6675977 36.8283883 19.5224741 36.8283883 19.5224741 31.6797337 23.9631537 31.6797337"></polygon>
                <polygon id="Fill-17" points="42.6553633 26.4099681 42.6553633 22.4717863 30.2694607 22.4717863 30.2694607 36.828452 42.7585899 36.828452 42.7585899 32.8896324 35.042401 32.8896324 35.042401 31.3328548 42.1379399 31.3328548 42.1379399 27.8666171 35.042401 27.8666171 35.042401 26.4099681"></polygon>
                <path d="M55.0206205,31.4958669 L56.3483728,28.0085829 L57.676125,31.4958669 L55.0206205,31.4958669 Z M53.9819028,22.3694892 L47.8618553,36.8281969 L53.0483472,36.8281969 L53.7960949,34.8996039 L58.8793602,34.8996039 L59.6471081,36.8281969 L64.9168264,36.8281969 L58.7954885,22.3694892 L53.9819028,22.3694892 Z" id="Fill-19"></path>
                <path d="M70.1656413,26.3084364 L71.4940387,26.3084364 C72.143076,26.3084364 72.6488864,26.4404531 73.0075988,26.7076755 C73.3669565,26.9723469 73.5469579,27.3683972 73.5469579,27.8856224 L73.5469579,27.9270769 C73.5469579,28.4468531 73.3559886,28.8403524 72.9766308,29.1075748 C72.5959827,29.3728839 72.0946885,29.506814 71.472103,29.506814 L70.1656413,29.506814 L70.1656413,26.3084364 Z M70.1656413,32.9315972 L71.7404922,32.9315972 C72.7243708,32.9315972 73.6198616,32.8199888 74.428255,32.5923077 C75.2372936,32.3678154 75.9327828,32.0278881 76.5147228,31.577628 C77.093437,31.1267301 77.5444082,30.5699636 77.8631204,29.9073287 C78.179897,29.2446937 78.3392531,28.4825678 78.3392531,27.620951 L78.3392531,27.5788587 C78.3392531,26.730635 78.179897,25.9857287 77.8631204,25.3428643 C77.5444082,24.7012755 77.1024693,24.1681063 76.534723,23.7446322 C75.9669766,23.3192448 75.2863262,23.0022769 74.4921265,22.7899021 C73.6953461,22.578165 72.8140489,22.4716587 71.8456543,22.4716587 L65.3107649,22.4716587 L65.3107649,36.8283245 L70.1656413,36.8283245 L70.1656413,32.9315972 Z" id="Fill-21"></path>
                <path d="M87.4055815,27.9271407 C87.4055815,28.4462792 87.2152575,28.8404162 86.8352545,29.1076386 C86.4552516,29.3729477 85.952667,29.5068778 85.3307267,29.5068778 L84.024265,29.5068778 L84.024265,26.3085001 L85.3520172,26.3085001 C86.0023448,26.3085001 86.5055745,26.4405169 86.8668677,26.7077393 C87.2268705,26.9724106 87.4055815,27.368461 87.4055815,27.8856862 L87.4055815,27.9271407 Z M92.1978768,27.5789225 C92.1978768,26.7319743 92.0391659,25.9857924 91.7204537,25.3429281 C91.4023867,24.7013393 90.9617382,24.1675323 90.3933467,23.7453337 C89.8262455,23.3186708 89.145595,23.0023407 88.3494598,22.7899659 C87.5539698,22.5782288 86.6726726,22.4717225 85.7055683,22.4717225 L79.1674531,22.4717225 L79.1674531,36.8283883 L84.024265,36.8283883 L84.024265,32.931661 L85.6004062,32.931661 C86.5829945,32.931661 87.4784853,32.8200526 88.288169,32.5930092 C89.0959172,32.3678792 89.7907613,32.0298652 90.3733465,31.5776917 C90.9546413,31.1267938 91.4023867,30.5700274 91.7204537,29.9073924 C92.0391659,29.2441197 92.1978768,28.4826316 92.1978768,27.6210148 L92.1978768,27.5789225 Z" id="Fill-23"></path>
                <path d="M103.972613,29.0450741 C103.425512,28.6834629 102.772604,28.3862657 102.011953,28.1534825 C101.250012,27.9200615 100.407424,27.7223552 99.4803204,27.5578126 C99.0925755,27.489572 98.7757988,27.4232448 98.5267646,27.3530909 C98.2777304,27.2854881 98.0796644,27.213421 97.9338568,27.1400783 C97.7893395,27.0635469 97.6886936,26.9844643 97.6351448,26.9028308 C97.577725,26.8199217 97.550628,26.7319105 97.550628,26.6356084 L97.550628,26.5935161 C97.550628,26.4181315 97.6377255,26.2733594 97.8093397,26.1636643 C97.9841798,26.054607 98.2499883,25.9991217 98.6087007,25.9991217 C99.2854802,25.9991217 100.009357,26.1126434 100.777105,26.3377734 C101.544207,26.5635413 102.273245,26.9226014 102.966154,27.4155916 L105.330688,24.1757594 C104.487456,23.5175888 103.535836,23.0258741 102.477763,22.6974266 C101.420335,22.3696168 100.186132,22.2050741 98.7757988,22.2050741 C97.779662,22.2050741 96.8977197,22.3300755 96.1293267,22.5749762 C95.3622239,22.8205147 94.7196383,23.1610797 94.2009246,23.6011357 C93.6815657,24.0380028 93.2873691,24.5494881 93.0176896,25.1394182 C92.7480101,25.7261594 92.6131703,26.3632839 92.6131703,27.0463273 L92.6131703,27.0865063 C92.6131703,27.8524587 92.7783329,28.4921343 93.1099484,29.0048951 C93.4428542,29.5163804 93.8880189,29.9443189 94.4486685,30.2855217 C95.0086728,30.628 95.6596456,30.9086154 96.4002965,31.1267301 C97.1383667,31.344207 97.9170825,31.537449 98.7332178,31.7007161 C99.5074174,31.8525035 100.037099,31.996 100.320972,32.1324811 C100.603555,32.2689622 100.745492,32.438607 100.745492,32.6439664 L100.745492,32.685421 C100.745492,32.8767497 100.649362,33.0285371 100.455812,33.1363189 C100.260972,33.246014 99.9429046,33.3008615 99.5016109,33.3008615 C98.6441849,33.3008615 97.779662,33.170758 96.9073972,32.9111888 C96.0364227,32.6509818 95.2067388,32.2211301 94.4177005,31.6190825 L91.8260675,34.6739636 C92.7499456,35.4832839 93.85318,36.0878825 95.1338351,36.4896727 C96.4125547,36.8927385 97.7938557,37.0949091 99.2725769,37.0949091 C100.241617,37.0949091 101.122914,36.9807497 101.918404,36.7562573 C102.713249,36.5311273 103.387447,36.2096951 103.940355,35.7919608 C104.494553,35.3755021 104.922298,34.8659301 105.226817,34.2638825 C105.53069,33.6624727 105.683594,32.9864448 105.683594,32.2351608 L105.683594,32.1949818 C105.683594,31.4692084 105.534561,30.8537678 105.237784,30.3480224 C104.939718,29.8422769 104.518424,29.4085986 103.972613,29.0450741" id="Fill-25"></path>
            </g>
        </g>
    </g>
</svg>