<?xml version="1.0" encoding="UTF-8" standalone="no"?>
<svg width="30px" height="27px" viewBox="0 0 30 27" version="1.1" xmlns="http://www.w3.org/2000/svg" xmlns:xlink="http://www.w3.org/1999/xlink">
    <!-- Generator: sketchtool 40.3 (33839) - http://www.bohemiancoding.com/sketch -->
    <title>213A4F5B-661D-441B-A915-FAEA48B1DA09</title>
    <desc>Created with sketchtool.</desc>
    <defs></defs>
    <g id="Welcome" stroke="none" stroke-width="1" fill="none" fill-rule="evenodd">
        <g id="랜딩" transform="translate(-1190.000000, -26.000000)" fill="#407ABD">
            <path d="M1192.7,47.6 C1191.2096,47.6 1190,48.8096 1190,50.3 C1190,51.7904 1191.2096,53 1192.7,53 C1194.1904,53 1195.4,51.7904 1195.4,50.3 C1195.4,48.8096 1194.1904,47.6 1192.7,47.6 L1192.7,47.6 Z M1199,53 L1220,53 L1220,49.2564401 L1199,49.2564401 L1199,53 Z M1192.7,36.8 C1191.2096,36.8 1190,38.0096 1190,39.5 C1190,40.9904 1191.2096,42.2 1192.7,42.2 C1194.1904,42.2 1195.4,40.9904 1195.4,39.5 C1195.4,38.0096 1194.1904,36.8 1192.7,36.8 L1192.7,36.8 Z M1199,41.7693204 L1220,41.7693204 L1220,38.0257605 L1199,38.0257605 L1199,41.7693204 Z M1192.7,26 C1191.2096,26 1190,27.2096 1190,28.7 C1190,30.1904 1191.2096,31.4 1192.7,31.4 C1194.1904,31.4 1195.4,30.1904 1195.4,28.7 C1195.4,27.2096 1194.1904,26 1192.7,26 L1192.7,26 Z M1199,30.5386407 L1220,30.5386407 L1220,26.7950809 L1199,26.7950809 L1199,30.5386407 Z" id="햄버거-바"></path>
        </g>
    </g>
</svg>