<?xml version="1.0" encoding="UTF-8"?>
<svg width="19px" height="19px" viewBox="0 0 19 19" version="1.1" xmlns="http://www.w3.org/2000/svg" xmlns:xlink="http://www.w3.org/1999/xlink">
    <!-- Generator: Sketch 39.1 (31720) - http://www.bohemiancoding.com/sketch -->
    <title>phone_bt copy 3</title>
    <desc>Created with Sketch.</desc>
    <defs></defs>
    <g id="Welcome" stroke="none" stroke-width="1" fill="none" fill-rule="evenodd">
        <g id="검색-페이지_프로젝트" transform="translate(-471.000000, -186.000000)">
            <g id="Group-2" transform="translate(450.000000, 120.000000)">
                <g id="버튼들" transform="translate(21.000000, 66.000000)">
                    <g id="phone_bt-copy-3">
                        <rect id="Rectangle-6-Copy" fill="#D8D8D8" x="0.79137931" y="0.408823529" width="18.0046148" height="18" rx="4"></rect>
                        <path d="M12.5779296,15.2228254 C11.1771882,15.0962372 9.65299162,14.3533225 8.49599507,13.535246 C6.79532093,12.3326578 5.20227438,10.4726019 4.27398645,8.49861661 C3.617933,7.10377249 3.47073645,5.3885019 4.44650714,4.11708131 C4.8073761,3.64712249 5.1975261,3.39631955 5.78393817,3.36704602 C6.5974761,3.3274872 6.71143472,3.79269896 6.99079162,4.51741661 C7.19892438,5.05937249 7.47669852,5.61240484 7.63180886,6.17414014 C7.92224507,7.22244896 6.90690541,7.26596367 6.77870197,8.12280778 C6.69877266,8.66318131 7.35403472,9.38789896 7.65001059,9.7732019 C8.23009162,10.5279843 8.92729679,11.1791225 9.71392783,11.674399 C10.1642227,11.9584313 10.8915002,12.4703225 11.4074796,12.1878725 C12.2020244,11.7527254 12.1268433,10.4132637 13.2379399,10.8666078 C13.8132727,11.100796 14.3704037,11.4386284 14.9196209,11.7345284 C15.7687709,12.1910372 15.729202,12.6641607 15.4055278,13.6468019 C15.0391192,14.7599872 13.6035571,15.3153931 12.5779296,15.2228254 Z" id="call-[#192]" fill="#FFFFFF"></path>
                    </g>
                </g>
            </g>
        </g>
    </g>
</svg>