<?xml version="1.0" encoding="UTF-8" standalone="no"?>
<svg width="15px" height="12px" viewBox="0 0 15 12" version="1.1" xmlns="http://www.w3.org/2000/svg" xmlns:xlink="http://www.w3.org/1999/xlink">
    <!-- Generator: sketchtool 40.3 (33839) - http://www.bohemiancoding.com/sketch -->
    <title>2E6D7908-E8A8-419D-8BFB-C9755FC910FC</title>
    <desc>Created with sketchtool.</desc>
    <defs></defs>
    <g id="Welcome" stroke="none" stroke-width="1" fill="none" fill-rule="evenodd">
        <g id="회원가입_오류" transform="translate(-823.000000, -550.000000)">
            <g id="회원가입" transform="translate(0.000000, 1.000000)">
                <g id="회원가입_오류" transform="translate(600.000000, 546.000000)">
                    <g id="email_x" transform="translate(220.000000, 0.500000)">
                        <g id="email" transform="translate(0.000000, -2.000000)">
                            <path d="M15.4087038,7.9705569 L10.4726344,10.6349179 C10.3983203,10.674868 10.3169288,10.694843 10.2350317,10.694843 C10.1546512,10.694843 10.0742707,10.6753802 10.0009678,10.6364545 L5.16853353,8.07709037 C4.92082009,7.94597226 4.82527348,7.63661546 4.95469111,7.3856472 C5.08410874,7.1357033 5.38945347,7.03941343 5.63666138,7.16950719 L10.2330095,9.60338715 L14.934004,7.0660468 C15.1796953,6.93287997 15.4865566,7.02814547 15.6174908,7.27757719 C15.7489306,7.52700891 15.6554062,7.83739007 15.4087038,7.9705569 M15.8631821,4.69260409 L4.71051643,4.69260409 C3.94361585,4.69260409 3.31674918,5.32821963 3.31674918,6.10519688 L3.31674918,14.5797293 C3.31674918,15.3567065 3.94361585,15.9918099 4.71051643,15.9918099 L15.8631821,15.9918099 C16.6300827,15.9918099 17.2574549,15.3567065 17.2574549,14.5797293 L17.2574549,6.10519688 C17.2574549,5.32821963 16.6300827,4.69260409 15.8631821,4.69260409" id="Fill-1" fill="#FF0000"></path>
                            <rect id="bounds" x="0" y="0.189949715" width="20" height="20.4488762"></rect>
                        </g>
                    </g>
                </g>
            </g>
        </g>
    </g>
</svg>