<?xml version="1.0" encoding="UTF-8"?>
<svg width="17px" height="13px" viewBox="0 0 17 13" version="1.1" xmlns="http://www.w3.org/2000/svg" xmlns:xlink="http://www.w3.org/1999/xlink">
    <!-- Generator: Sketch 39.1 (31720) - http://www.bohemiancoding.com/sketch -->
    <title>email</title>
    <desc>Created with Sketch.</desc>
    <defs></defs>
    <g id="Welcome" stroke="none" stroke-width="1" fill="none" fill-rule="evenodd">
        <g id="회원가입" transform="translate(-822.000000, -549.000000)" fill="#9C9C9C">
            <g transform="translate(0.000000, 1.000000)" id="이메일-입력">
                <g transform="translate(600.000000, 546.000000)">
                    <g id="email_o" transform="translate(220.000000, 0.000000)">
                        <path d="M14.0919546,5.56805752 L9.15588518,8.46821927 C9.08157115,8.51170497 9.00017959,8.53344782 8.9182825,8.53344782 C8.83790201,8.53344782 8.75752153,8.51226248 8.68421857,8.4698918 L3.85178435,5.68401939 C3.60407091,5.54129709 3.50852429,5.20456166 3.63794193,4.93138226 C3.76735956,4.65931787 4.07270429,4.55450618 4.31991219,4.69611346 L8.91626035,7.34539617 L13.6172548,4.58349665 C13.8629461,4.43854431 14.1698074,4.54224098 14.3007417,4.81374786 C14.4321814,5.08525474 14.338657,5.42310518 14.0919546,5.56805752 M14.546433,2 L3.39376725,2 C2.62686666,2 2,2.69186865 2,3.53760979 L2,12.7621535 C2,13.6078946 2.62686666,14.2992058 3.39376725,14.2992058 L14.546433,14.2992058 C15.3133335,14.2992058 15.9407057,13.6078946 15.9407057,12.7621535 L15.9407057,3.53760979 C15.9407057,2.69186865 15.3133335,2 14.546433,2" id="Fill-1"></path>
                    </g>
                </g>
            </g>
        </g>
    </g>
</svg>