<?xml version="1.0" encoding="UTF-8"?>
<svg width="32px" height="32px" viewBox="0 0 32 32" version="1.1" xmlns="http://www.w3.org/2000/svg" xmlns:xlink="http://www.w3.org/1999/xlink">
    <!-- Generator: Sketch 39.1 (31720) - http://www.bohemiancoding.com/sketch -->
    <title> </title>
    <desc>Created with Sketch.</desc>
    <defs></defs>
    <g id="Symbols" stroke="none" stroke-width="1" fill="none" fill-rule="evenodd">
        <g id="-" fill="#FFFFFF">
            <path d="M29,26.999991 C29,19.8198095 23.1806743,14 16,14 C8.82450281,14 3,19.825742 3,26.9940469 L3,30.9180624 C3,31.4703472 3.44771525,31.9180624 4,31.9180624 C4.55228475,31.9180624 5,31.4703472 5,30.9180624 L5,26.9940469 C5,20.9302163 9.92916756,16 16,16 C22.0760676,16 27,20.9243418 27,26.999991 L27,30.9121094 C27,31.4643941 27.4477153,31.9121094 28,31.9121094 C28.5522847,31.9121094 29,31.4643941 29,30.9121094 L29,26.999991 L29,26.999991 Z M23,7 C23,3.13400675 19.8659932,0 16,0 C12.1340068,0 9,3.13400675 9,7 C9,10.8659932 12.1340068,14 16,14 C19.8659932,14 23,10.8659932 23,7 L23,7 Z M11,7 C11,4.23857625 13.2385763,2 16,2 C18.7614237,2 21,4.23857625 21,7 C21,9.76142375 18.7614237,12 16,12 C13.2385763,12 11,9.76142375 11,7 L11,7 Z" id="Rectangle-873"></path>
        </g>
    </g>
</svg>