<?xml version="1.0" encoding="UTF-8" standalone="no"?>
<svg width="206px" height="50px" viewBox="0 0 206 50" version="1.1" xmlns="http://www.w3.org/2000/svg" xmlns:xlink="http://www.w3.org/1999/xlink">
    <!-- Generator: sketchtool 40.3 (33839) - http://www.bohemiancoding.com/sketch -->
    <title>B6045BDC-3BCD-4EE8-8D6F-754A0D63B3A6</title>
    <desc>Created with sketchtool.</desc>
    <defs>
        <rect id="path-1" x="0" y="0" width="206" height="50"></rect>
        <mask id="mask-2" maskContentUnits="userSpaceOnUse" maskUnits="objectBoundingBox" x="0" y="0" width="206" height="50" fill="white">
            <use xlink:href="#path-1"></use>
        </mask>
    </defs>
    <g id="Welcome" stroke="none" stroke-width="1" fill="none" fill-rule="evenodd">
        <g id="랜딩" transform="translate(-950.000000, -614.000000)">
            <g id="Landing_main" transform="translate(0.000000, 206.000000)">
                <g id="Group-3" transform="translate(0.000000, 123.000000)">
                    <g id="Group-4" transform="translate(745.000000, 74.000000)">
                        <g id="회원가입" transform="translate(1.000000, 211.000000)">
                            <g id="로그인_bt" transform="translate(204.000000, 0.000000)">
                                <use id="Rectangle-2-Copy" stroke="#407ABD" mask="url(#mask-2)" stroke-width="4" fill="#FFFFFF" xlink:href="#path-1"></use>
                                <g id="Group" transform="translate(64.000000, 17.000000)" fill="#407ABD">
                                    <text id="로그인" font-family=".AppleSDGothicNeoI-Bold, .Apple SD Gothic NeoI" font-size="16" font-weight="bold" line-spacing="28" letter-spacing="0.285714298">
                                        <tspan x="27.6841892" y="14">로그인</tspan>
                                    </text>
                                    <g id="L_login" stroke="#979797">
                                        <path d="M29,26.999991 C29,19.8198095 23.1806743,14 16,14 C8.82450281,14 3,19.825742 3,26.9940469 L3,30.9180624 C3,31.4703472 3.44771525,31.9180624 4,31.9180624 C4.55228475,31.9180624 5,31.4703472 5,30.9180624 L5,26.9940469 C5,20.9302163 9.92916756,16 16,16 C22.0760676,16 27,20.9243418 27,26.999991 L27,30.9121094 C27,31.4643941 27.4477153,31.9121094 28,31.9121094 C28.5522847,31.9121094 29,31.4643941 29,30.9121094 L29,26.999991 L29,26.999991 Z M23,7 C23,3.13400675 19.8659932,0 16,0 C12.1340068,0 9,3.13400675 9,7 C9,10.8659932 12.1340068,14 16,14 C19.8659932,14 23,10.8659932 23,7 L23,7 Z M11,7 C11,4.23857625 13.2385763,2 16,2 C18.7614237,2 21,4.23857625 21,7 C21,9.76142375 18.7614237,12 16,12 C13.2385763,12 11,9.76142375 11,7 L11,7 Z" id="Rectangle-873" stroke="none"></path>
                                    </g>
                                </g>
                            </g>
                        </g>
                    </g>
                </g>
            </g>
        </g>
    </g>
</svg>