<?xml version="1.0" encoding="UTF-8" standalone="no"?>
<svg width="89px" height="75px" viewBox="0 0 89 75" version="1.1" xmlns="http://www.w3.org/2000/svg" xmlns:xlink="http://www.w3.org/1999/xlink">
    <!-- Generator: sketchtool 40.3 (33839) - http://www.bohemiancoding.com/sketch -->
    <title>DF7FCCC3-C48D-4224-BDD0-57020CDDC5F6</title>
    <desc>Created with sketchtool.</desc>
    <defs>
        <polygon id="path-1" points="0.000104652352 0.0935521512 0.000104652352 74.2201688 88.5970414 74.2201688 88.5970414 0.0935521512"></polygon>
    </defs>
    <g id="Welcome" stroke="none" stroke-width="1" fill="none" fill-rule="evenodd">
        <g id="M_랜딩" transform="translate(-116.000000, -361.000000)">
            <g id="메인" transform="translate(0.000000, 50.000000)">
                <g id="로고" transform="translate(116.000000, 311.000000)">
                    <path d="M22.1881823,31.0978052 C21.8930627,30.9024159 21.53864,30.7405119 21.128054,30.6152004 C20.7167702,30.4888532 20.2611837,30.3828735 19.7595501,30.2927734 C19.5498965,30.2558359 19.3782667,30.2188983 19.2439628,30.1823059 C19.1093101,30.1460588 19.0025647,30.1060143 18.9237266,30.0652794 C18.8452374,30.0255802 18.791167,29.982774 18.7615155,29.9385871 C18.7311663,29.8933644 18.716515,29.8457253 18.716515,29.7939437 L18.716515,29.771505 C18.716515,29.6748459 18.7629108,29.5982091 18.8560514,29.5377972 C18.9509362,29.4791114 19.0939611,29.4497684 19.2882656,29.4497684 C19.6548977,29.4497684 20.0449021,29.511216 20.4610697,29.6327302 C20.875493,29.7538992 21.2703812,29.9489434 21.6443389,30.2147558 L22.9228418,28.4624653 C22.4672552,28.1058624 21.9530634,27.8403953 21.380615,27.6622664 C20.8085155,27.4844828 20.1411823,27.3964541 19.3782667,27.3964541 C18.8400047,27.3964541 18.3631389,27.4623893 17.947669,27.5956407 C17.5328969,27.7288921 17.1851022,27.9146156 16.9049828,28.1500494 C16.6241656,28.3875545 16.4110237,28.6644137 16.265208,28.9844242 C16.1190436,29.301673 16.0464846,29.645503 16.0464846,30.0145334 L16.0464846,30.0373174 C16.0464846,30.4526061 16.1361368,30.7991978 16.3154412,31.0753665 C16.4954432,31.3539517 16.7364925,31.585243 17.0392866,31.7688952 C17.3417319,31.9549639 17.6926661,32.1068567 18.0938335,32.2242284 C18.4936055,32.3426357 18.9146567,32.4455085 19.355592,32.5345729 C19.7745502,32.6177688 20.0599023,32.695096 20.2137413,32.7693163 C20.3668825,32.8428463 20.4436276,32.9350176 20.4436276,33.0458303 L20.4436276,33.0675786 C20.4436276,33.1718322 20.3919991,33.253302 20.2873468,33.3130235 C20.1819967,33.3720546 20.0103669,33.4020879 19.7700153,33.4020879 C19.3071031,33.4020879 18.8400047,33.3313197 18.3683715,33.1904736 C17.8974359,33.050318 17.4481285,32.8169555 17.0225422,32.4907312 L15.6202007,34.145327 C16.1211366,34.5823639 16.717655,34.9106595 17.4097559,35.1271067 C18.1011591,35.3459704 18.8469816,35.4554023 19.6472232,35.4554023 C20.1701361,35.4554023 20.647002,35.3946452 21.0778209,35.2720953 C21.507942,35.1502359 21.872481,34.97694 22.1714379,34.7501364 C22.470046,34.5236781 22.7023742,34.248545 22.8666784,33.9237016 C23.0313314,33.5981677 23.1136579,33.2312085 23.1136579,32.8245501 L23.1136579,32.8017662 C23.1136579,32.410297 23.0334245,32.0768233 22.8729575,31.8023806 C22.7117929,31.527938 22.4839996,31.2949206 22.1881823,31.0978052" id="Fill-1" fill="#F5851F"></path>
                    <polygon id="Fill-3" fill="#F5851F" points="26.2322283 32.5241476 28.6329532 32.5241476 28.6329532 35.3113803 31.257983 35.3113803 31.257983 27.5399927 28.6329532 27.5399927 28.6329532 30.2823481 26.2322283 30.2823481 26.2322283 27.5399927 23.6068496 27.5399927 23.6068496 35.3113803 26.2322283 35.3113803"></polygon>
                    <path d="M37.7858828,31.4484014 C37.7858828,31.6776214 37.7489056,31.8961399 37.6739048,32.102576 C37.5989039,32.310393 37.491112,32.4933548 37.3487848,32.6521518 C37.2064576,32.811294 37.0344789,32.939022 36.8331975,33.033955 C36.6315673,33.1313045 36.4065648,33.1792888 36.1599341,33.1792888 C35.90528,33.1792888 35.6771379,33.1313045 35.4758565,33.033955 C35.2735286,32.939022 35.1012011,32.8088775 34.9592228,32.645938 C34.8172444,32.4843793 34.7077083,32.2965846 34.6281725,32.0863511 C34.5496832,31.8743916 34.5109618,31.6548375 34.5109618,31.4249271 L34.5109618,31.403524 C34.5109618,31.1749944 34.547939,30.9561307 34.6232887,30.7486589 C34.6975919,30.5404968 34.8057326,30.357535 34.947711,30.198738 C35.090387,30.0392505 35.2630634,29.9115225 35.4643448,29.8165895 C35.6656261,29.7195853 35.8902798,29.6719462 36.1372594,29.6719462 C36.3915646,29.6719462 36.6193579,29.7195853 36.8216858,29.8165895 C37.0240137,29.9115225 37.1952947,30.0413218 37.3379707,30.2039161 C37.4792514,30.3672009 37.5901829,30.5536148 37.6683233,30.7648838 C37.7471614,30.9764981 37.7858828,31.1967427 37.7858828,31.4249271 L37.7858828,31.4484014 Z M40.102537,33.0087546 C40.3230046,32.5147578 40.4335873,31.9872756 40.4335873,31.4249271 L40.4335873,31.403524 C40.4335873,30.8418659 40.3254465,30.3136932 40.1081185,29.8207321 C39.8911392,29.3288065 39.5904382,28.9010902 39.2056663,28.5382736 C38.8208945,28.177183 38.367401,27.892384 37.8476277,27.6849123 C37.3282032,27.4777857 36.7655223,27.3724964 36.1599341,27.3724964 C35.5536481,27.3724964 34.9892231,27.4791666 34.4659613,27.6897452 C33.9423507,27.9010143 33.4878107,28.1892654 33.1030389,28.5558794 C32.7168717,28.9228385 32.4154729,29.3515905 32.1939588,29.843516 C31.9734912,30.3361319 31.8636062,30.8636142 31.8636062,31.4249271 L31.8636062,31.4484014 C31.8636062,32.0097143 31.9717469,32.5371965 32.1887262,33.0301577 C32.4053565,33.521738 32.7064065,33.9497995 33.0908294,34.3122709 C33.4769966,34.6747424 33.9290948,34.9585057 34.4488681,35.1663227 C34.9686415,35.3737944 35.5313223,35.4770125 36.1372594,35.4770125 C36.7435453,35.4770125 37.3079704,35.3727588 37.8308833,35.1611445 C38.3544939,34.9498755 38.8090339,34.6609339 39.1934569,34.2957008 C39.5789264,33.9290869 39.8827671,33.4999897 40.102537,33.0087546 L40.102537,33.0087546 Z" id="Fill-5" fill="#F5851F"></path>
                    <polygon id="Fill-7" fill="#F5851F" points="50.3615373 27.5398201 49.250827 31.2694786 47.9838358 27.5177266 45.7174147 27.5177266 44.4497259 31.2694786 43.3393645 27.5398201 40.5911937 27.5398201 43.1593624 35.3660962 45.4477605 35.3660962 46.8274274 31.5038768 48.2070942 35.3660962 50.49619 35.3660962 53.0654052 27.5398201"></polygon>
                    <polygon id="Fill-9" fill="#F5851F" points="56.1385564 27.5398201 56.1385564 35.3115529 58.695911 35.3115529 58.695911 31.4589994 60.5081409 34.2220673 60.5527926 34.2220673 62.3643248 31.4589994 62.3643248 35.3115529 64.9785405 35.3115529 64.9785405 27.5398201 62.2411839 27.5398201 60.558374 30.2714739 58.8759131 27.5398201"></polygon>
                    <polygon id="Fill-11" fill="#F5851F" points="72.5163704 33.1791852 68.3428346 33.1791852 68.3428346 32.3361802 72.1797386 32.3361802 72.1797386 30.4599591 68.3428346 30.4599591 68.3428346 29.6711522 72.4602069 29.6711522 72.4602069 27.5408558 65.7642006 27.5408558 65.7642006 35.3115529 72.5163704 35.3115529"></polygon>
                    <polygon id="Fill-13" fill="#F5851F" points="15.8221798 41.482094 18.1332525 41.482094 18.1332525 47.0548334 20.7575847 47.0548334 20.7575847 41.482094 23.0686574 41.482094 23.0686574 39.2844815 15.8221798 39.2844815"></polygon>
                    <polygon id="Fill-15" fill="#F5851F" points="28.577034 47.0546953 31.2017149 47.0546953 31.2017149 39.283653 28.577034 39.283653 28.577034 42.0266987 26.1759602 42.0266987 26.1759602 39.283653 23.5509304 39.283653 23.5509304 47.0546953 26.1759602 47.0546953 26.1759602 44.2678078 28.577034 44.2678078"></polygon>
                    <polygon id="Fill-17" fill="#F5851F" points="38.6839046 41.4153647 38.6839046 39.2836875 31.9868518 39.2836875 31.9868518 47.0547298 38.7397192 47.0547298 38.7397192 44.9227074 34.5675788 44.9227074 34.5675788 44.0800476 38.404134 44.0800476 38.404134 42.2038264 34.5675788 42.2038264 34.5675788 41.4153647"></polygon>
                    <path d="M45.3697945,44.1682835 L46.0877096,42.2806704 L46.8056248,44.1682835 L45.3697945,44.1682835 Z M44.8081602,39.2283157 L41.4990529,47.0545918 L44.303387,47.0545918 L44.707694,46.010674 L47.4562136,46.010674 L47.8713346,47.0545918 L50.7206693,47.0545918 L47.4108642,39.2283157 L44.8081602,39.2283157 Z" id="Fill-19" fill="#F5851F"></path>
                    <path d="M53.5587015,41.3604072 L54.2769655,41.3604072 C54.6278997,41.3604072 54.9013912,41.4318658 55.0953469,41.5765092 C55.2896514,41.7197717 55.3869781,41.9341477 55.3869781,42.2141137 L55.3869781,42.2365524 C55.3869781,42.5178993 55.2837211,42.7308944 55.0786025,42.8755378 C54.8727862,43.0191455 54.6017366,43.0916398 54.2651049,43.0916398 L53.5587015,43.0916398 L53.5587015,41.3604072 Z M53.5587015,44.9454223 L54.4102228,44.9454223 C54.9422056,44.9454223 55.4263971,44.8850104 55.8634951,44.7617701 C56.300942,44.6402558 56.6769927,44.4562584 56.9916475,44.2125395 C57.304558,43.9684754 57.548398,43.6671063 57.7207255,43.3084322 C57.8920065,42.9497581 57.9781703,42.5372311 57.9781703,42.0708512 L57.9781703,42.0480673 C57.9781703,41.5889368 57.8920065,41.1857305 57.7207255,40.8377579 C57.548398,40.4904757 57.3094418,40.2018794 57.0024616,39.9726594 C56.6954813,39.7424037 56.3274539,39.5708339 55.8980304,39.4558787 C55.4672116,39.3412687 54.9906945,39.2836185 54.4670839,39.2836185 L50.9336717,39.2836185 L50.9336717,47.0546608 L53.5587015,47.0546608 L53.5587015,44.9454223 Z" id="Fill-21" fill="#F5851F"></path>
                    <path d="M62.8803307,42.2365869 C62.8803307,42.5175886 62.7774225,42.7309289 62.5719551,42.8755723 C62.3664876,43.01918 62.0947403,43.0916743 61.7584574,43.0916743 L61.0520541,43.0916743 L61.0520541,41.3604417 L61.7699692,41.3604417 C62.1216011,41.3604417 62.3936972,41.4319003 62.5890483,41.5765437 C62.7837017,41.7198062 62.8803307,41.9341822 62.8803307,42.2141482 L62.8803307,42.2365869 Z M65.4715229,42.0481018 C65.4715229,41.5896617 65.385708,41.185765 65.2133804,40.8377924 C65.0414017,40.4905102 64.8031432,40.2015687 64.4958141,39.9730391 C64.1891827,39.742093 63.8211553,39.5708684 63.3906853,39.4559132 C62.9605641,39.3413032 62.4840471,39.283653 61.9611342,39.283653 L58.4259777,39.283653 L58.4259777,47.0546953 L61.0520541,47.0546953 L61.0520541,44.9454568 L61.9042731,44.9454568 C62.4355582,44.9454568 62.9197497,44.8850449 63.3575454,44.7621498 C63.7942945,44.6402904 64.1699965,44.4573286 64.4850001,44.2125741 C64.7993059,43.96851 65.0414017,43.6671409 65.2133804,43.3084667 C65.385708,42.9494474 65.4715229,42.5372656 65.4715229,42.0708857 L65.4715229,42.0481018 Z" id="Fill-23" fill="#F5851F"></path>
                    <path d="M71.8381185,42.8417071 C71.5423012,42.6459725 71.1892739,42.4851042 70.7779901,42.3591023 C70.3660087,42.2327551 69.9104222,42.1257397 69.4091374,42.0366753 C69.1994838,41.9997377 69.0282028,41.9638358 68.8935501,41.9258626 C68.7588974,41.8892702 68.6518032,41.8502614 68.5729651,41.8105622 C68.4948247,41.7691369 68.4404055,41.7263307 68.4114516,41.6821437 C68.3804048,41.6372663 68.3657534,41.5896272 68.3657534,41.5375004 L68.3657534,41.5147164 C68.3657534,41.4197834 68.412847,41.3414206 68.5056388,41.2820443 C68.6001747,41.2230132 68.7438973,41.1929799 68.937853,41.1929799 C69.3037874,41.1929799 69.6951872,41.2544274 70.1103081,41.3762869 C70.5250803,41.4984915 70.9192708,41.6928453 71.2939262,41.9596933 L72.5724291,40.2060219 C72.1164937,39.8497643 71.601953,39.5836067 71.0298535,39.4058231 C70.4581028,39.2283847 69.7907696,39.1393203 69.0282028,39.1393203 C68.4895921,39.1393203 68.0127262,39.2069816 67.5972563,39.3395426 C67.1824842,39.4724488 66.8350384,39.6567914 66.5545701,39.8949869 C66.2737529,40.1314564 66.060611,40.4083155 65.9147954,40.7276356 C65.7689798,41.0452296 65.6960719,41.3900953 65.6960719,41.7598162 L65.6960719,41.7815645 C65.6960719,42.1961627 65.7853753,42.5424093 65.9646797,42.8199588 C66.1446817,43.0968179 66.3853821,43.3284545 66.6885251,43.5131423 C66.9913192,43.6985205 67.3433,43.8504133 67.7437696,43.9684754 C68.1428439,44.0861924 68.5638952,44.1907913 69.0051793,44.2791652 C69.4237887,44.3613254 69.7101873,44.4389979 69.8636774,44.512873 C70.0164699,44.5867481 70.0932149,44.6785742 70.0932149,44.7897321 L70.0932149,44.8121709 C70.0932149,44.9157341 70.0412376,44.9978943 69.9365852,45.056235 C69.8312352,45.1156112 69.6592565,45.1452994 69.4206491,45.1452994 C68.9570392,45.1452994 68.4895921,45.0748763 68.0179588,44.9343755 C67.5470232,44.7935295 67.0984135,44.5608573 66.6717807,44.2349782 L65.2704857,45.8885384 C65.7700263,46.326611 66.3665447,46.653871 67.0589944,46.8713538 C67.7503976,47.0895271 68.4972666,47.198959 69.2968105,47.198959 C69.82077,47.198959 70.297287,47.1371662 70.7274082,47.015652 C71.1571805,46.8937925 71.5217195,46.7198062 71.8206764,46.4936931 C72.120331,46.2682704 72.3516127,45.9924469 72.5162657,45.6665678 C72.6805699,45.3410339 72.7632453,44.9751104 72.7632453,44.568452 L72.7632453,44.5467037 C72.7632453,44.1538537 72.682663,43.8207252 72.522196,43.5469729 C72.3610314,43.2732207 72.1332381,43.0384773 71.8381185,42.8417071" id="Fill-25" fill="#F5851F"></path>
                    <g id="Group-29" transform="translate(0.000000, 0.251659)">
                        <mask id="mask-2" fill="white">
                            <use xlink:href="#path-1"></use>
                        </mask>
                        <g id="Clip-28"></g>
                        <path d="M85.7232878,37.2173587 C85.7232878,38.5398616 85.226538,39.6883782 84.2019915,40.6870733 L46.7776128,70.3948869 C46.0991168,70.9465339 45.2291069,71.2551524 44.3004917,71.2551524 C43.3823417,71.2551524 42.520704,70.9537833 41.8062773,70.3817689 L41.7319741,70.3182501 L4.91597445,40.9915493 L4.39306154,40.5413943 C3.49165595,39.6345253 2.99630148,38.4383696 2.99630148,37.1662675 C2.99630148,37.1624701 2.99734801,37.1600537 2.99734801,37.1569468 C2.99734801,37.1534947 2.99630148,37.150733 2.99630148,37.1476261 C2.99630148,35.8748335 3.49165595,34.6786778 4.39306154,33.7724992 L4.91597445,33.3223442 L41.7319741,3.99564345 L41.8062773,3.93316028 C42.520704,3.36080062 43.3823417,3.05874109 44.3004917,3.05874109 C45.2291069,3.05874109 46.0991168,3.36770484 46.7776128,3.91866142 L84.0924554,33.5360297 C85.151886,34.4536003 85.7232878,35.7595331 85.7232878,37.0816908 L85.7232878,37.2173587 Z M88.5970414,37.1476261 C88.5970414,34.9904032 87.7211012,32.9843827 86.1289901,31.4979046 L85.6681709,31.0981504 L48.7757751,1.70827609 L48.718914,1.65925614 C47.475644,0.64951429 45.9065564,0.0933795458 44.3004917,0.0933795458 C42.6958223,0.0933795458 41.1839446,0.744447285 39.9420701,1.75280829 L3.01479006,31.0308343 L2.38548059,31.5710893 L2.31152626,31.6397863 C0.82057909,33.1100395 0.000104652352,35.0656592 0.000104652352,37.1476261 C0.000104652352,37.150733 0.000453493524,37.1534947 0.000453493524,37.1569468 C0.000453493524,37.1600537 0.000104652352,37.1624701 0.000104652352,37.1662675 C0.000104652352,39.2485795 0.82057909,41.2045444 2.31152626,42.6741072 L2.38548059,42.7438398 L3.01479006,43.2840949 L39.8859066,72.6577443 C41.1277812,73.6657601 42.6958223,74.2201688 44.3004917,74.2201688 C45.9065564,74.2201688 47.475644,73.6643792 48.718914,72.6542922 L48.7757751,72.6056174 L85.6681709,43.2153979 L86.1289901,42.8166793 C87.7211012,41.329856 88.5970414,39.3234903 88.5970414,37.1662675 C88.5970414,37.1624701 88.5963437,37.1600537 88.5963437,37.1569468 C88.5963437,37.1534947 88.5970414,37.150733 88.5970414,37.1476261 L88.5970414,37.1476261 Z" id="Fill-27" fill="#F5851F" mask="url(#mask-2)"></path>
                    </g>
                    <path d="M26.6291049,26.0153688 C26.4717775,26.0153688 26.3127059,25.9694558 26.1738671,25.8734872 C25.8128165,25.6235545 25.7242109,25.1312838 25.9760742,24.7753713 C30.156238,18.849136 37.0060832,15.3107244 44.2986079,15.3107244 C51.5907838,15.3107244 58.4395825,18.8477551 62.6200951,24.7729549 C62.8712608,25.1302481 62.7833528,25.6214832 62.422651,25.8714159 C62.0609027,26.1210034 61.5648506,26.0340102 61.3122896,25.676717 C57.4300362,20.1730197 51.0703128,16.8883381 44.2986079,16.8883381 C37.5262054,16.8883381 31.166482,20.1744006 27.2835309,25.6774074 C27.1286454,25.8973067 26.8816659,26.0153688 26.6291049,26.0153688" id="Fill-30" fill="#F5851F"></path>
                    <path d="M44.2983986,59.5058998 C36.9919203,59.5058998 30.1350982,55.9571318 25.9556321,50.0150168 C25.7041176,49.6570331 25.7937698,49.165798 26.1544716,48.9162105 C26.5165687,48.6669683 27.0136674,48.7563779 27.2644842,49.1133259 C31.1467376,54.6325577 37.513089,57.928286 44.2983986,57.928286 C51.0854525,57.928286 57.4528504,54.6325577 61.3330108,49.1115999 C61.5845252,48.7546518 62.0812751,48.6655874 62.4430234,48.9141393 C62.804074,49.1633815 62.8933773,49.6556522 62.6425605,50.0126003 C58.4634433,55.9571318 51.6062723,59.5058998 44.2983986,59.5058998" id="Fill-32" fill="#F5851F"></path>
                </g>
            </g>
        </g>
    </g>
</svg>