<?xml version="1.0" encoding="UTF-8"?>
<svg width="163px" height="138px" viewBox="0 0 163 138" version="1.1" xmlns="http://www.w3.org/2000/svg" xmlns:xlink="http://www.w3.org/1999/xlink">
    <!-- Generator: Sketch 39.1 (31720) - http://www.bohemiancoding.com/sketch -->
    <title>로고</title>
    <desc>Created with Sketch.</desc>
    <defs>
        <polygon id="path-1" points="162.261997 0.173138889 0.000191666667 0.173138889 0.000191666667 137.360792 162.261997 137.360792 162.261997 0.173138889"></polygon>
    </defs>
    <g id="Welcome" stroke="none" stroke-width="1" fill="none" fill-rule="evenodd">
        <g id="랜딩" transform="translate(-388.000000, -398.000000)">
            <g id="Landing_main" transform="translate(0.000000, 206.000000)">
                <g id="Group-2" transform="translate(309.000000, 0.000000)">
                    <g id="로고" transform="translate(79.000000, 192.000000)">
                        <path d="M40.6367833,57.5533472 C40.0962833,57.1917361 39.4471722,56.8920972 38.6952,56.6601806 C37.94195,56.4263472 37.1075611,56.2302083 36.1888389,56.0634583 C35.8048667,55.9950972 35.4905333,55.9267361 35.2445611,55.8590139 C34.99795,55.7919306 34.80245,55.7178194 34.6580611,55.6424306 C34.5143111,55.5689583 34.4152833,55.4897361 34.3609778,55.4079583 C34.3053944,55.3242639 34.2785611,55.2360972 34.2785611,55.1402639 L34.2785611,55.0987361 C34.2785611,54.9198472 34.3635333,54.7780139 34.5341167,54.6662083 C34.7078944,54.5575972 34.9698389,54.5032917 35.3257,54.5032917 C35.9971722,54.5032917 36.71145,54.6170139 37.4736444,54.8419028 C38.2326444,55.0661528 38.9558667,55.427125 39.6407556,55.9190694 L41.9822833,52.6760694 C41.1478944,52.0160972 40.2061722,51.5247917 39.1577556,51.195125 C38.1099778,50.8660972 36.8877833,50.7031806 35.4905333,50.7031806 C34.5047278,50.7031806 33.6313667,50.8252083 32.87045,51.0718194 C32.1108111,51.3184306 31.4738389,51.6621528 30.9608111,52.097875 C30.4465056,52.5374306 30.0561444,53.0498194 29.7890889,53.6420694 C29.5213944,54.2292083 29.3885056,54.8655417 29.3885056,55.5485139 L29.3885056,55.5906806 C29.3885056,56.3592639 29.5527,57.0007083 29.8810889,57.5118194 C30.2107556,58.0274028 30.6522278,58.4554583 31.2067833,58.7953472 C31.7607,59.1397083 32.4034222,59.4208194 33.1381444,59.6380417 C33.8703111,59.8571806 34.64145,60.0475694 35.4490056,60.2124028 C36.2163111,60.366375 36.7389222,60.5094861 37.0206722,60.6468472 C37.3011444,60.7829306 37.4417,60.9535139 37.4417,61.1585972 L37.4417,61.1988472 C37.4417,61.3917917 37.3471444,61.5425694 37.1554778,61.6530972 C36.9625333,61.7623472 36.6482,61.8179306 36.2080056,61.8179306 C35.3602,61.8179306 34.5047278,61.6869583 33.64095,61.4262917 C32.77845,61.1669028 31.9555611,60.7350139 31.1761167,60.1312639 L28.6077833,63.1934583 C29.5252278,64.0022917 30.6177278,64.609875 31.8852833,65.0104583 C33.1515611,65.4155139 34.5175056,65.6180417 35.9831167,65.6180417 C36.9408111,65.6180417 37.8141722,65.5055972 38.6032,65.2787917 C39.39095,65.0532639 40.0585889,64.7325417 40.6061167,64.3127917 C41.1530056,63.8936806 41.5785056,63.3844861 41.8794222,62.7832917 C42.1809778,62.1808194 42.3317556,61.5016806 42.3317556,60.7490694 L42.3317556,60.7069028 C42.3317556,59.9824028 42.1848111,59.3652361 41.8909222,58.8573194 C41.5957556,58.3494028 41.1785611,57.9181528 40.6367833,57.5533472" id="Fill-1" fill="#FEFEFE"></path>
                        <polygon id="Fill-3" fill="#FEFEFE" points="48.0432944 60.1931083 52.4401278 60.1931083 52.4401278 65.3514972 57.2477667 65.3514972 57.2477667 50.9688306 52.4401278 50.9688306 52.4401278 56.0441639 48.0432944 56.0441639 48.0432944 50.9688306 43.2350167 50.9688306 43.2350167 65.3514972 48.0432944 65.3514972"></polygon>
                        <path d="M69.2033583,58.2022028 C69.2033583,58.626425 69.1356361,59.0308417 68.998275,59.4128972 C68.8609139,59.7975083 68.6634972,60.1361194 68.4028306,60.4300083 C68.1421639,60.7245361 67.8271917,60.960925 67.4585528,61.1366194 C67.089275,61.3167861 66.6771917,61.4055917 66.2254972,61.4055917 C65.7591083,61.4055917 65.341275,61.3167861 64.9726361,61.1366194 C64.6020806,60.960925 64.2864694,60.7200639 64.0264417,60.4185083 C63.7664139,60.1195083 63.5658028,59.7719528 63.4201361,59.3828694 C63.2763861,58.9905917 63.2054694,58.5842583 63.2054694,58.1587583 L63.2054694,58.1191472 C63.2054694,57.6962028 63.2731917,57.2911472 63.4111917,56.907175 C63.547275,56.521925 63.7453306,56.1833139 64.0053583,55.889425 C64.2666639,55.5942583 64.5829139,55.3578694 64.9515528,55.182175 C65.3201917,55.0026472 65.7316361,54.9144806 66.1839694,54.9144806 C66.6497194,54.9144806 67.0669139,55.0026472 67.4374694,55.182175 C67.808025,55.3578694 68.1217194,55.5980917 68.383025,55.8990083 C68.641775,56.2012028 68.8449417,56.5462028 68.9880528,56.9372028 C69.1324417,57.3288417 69.2033583,57.7364528 69.2033583,58.1587583 L69.2033583,58.2022028 Z M73.4462194,61.0899806 C73.8499972,60.1757306 74.052525,59.1995083 74.052525,58.1587583 L74.052525,58.1191472 C74.052525,57.079675 73.8544694,56.102175 73.4564417,55.1898417 C73.0590528,54.279425 72.5083306,53.4878417 71.8036361,52.8163694 C71.0989417,52.1480917 70.2683861,51.6210083 69.3164417,51.2370361 C68.3651361,50.8537028 67.3346083,50.6588417 66.2254972,50.6588417 C65.1151083,50.6588417 64.0813861,50.8562583 63.1230528,51.2459806 C62.1640806,51.6369806 61.3316083,52.1704528 60.6269139,52.8489528 C59.9196639,53.5280917 59.3676639,54.3215917 58.9619694,55.2320083 C58.5581917,56.1437028 58.3569417,57.119925 58.3569417,58.1587583 L58.3569417,58.2022028 C58.3569417,59.2410361 58.5549972,60.2172583 58.9523861,61.1295917 C59.3491361,62.0393694 59.9004972,62.8315917 60.6045528,63.502425 C61.3118028,64.1732583 62.1398028,64.698425 63.0917472,65.0830361 C64.0436917,65.4670083 65.0742194,65.6580361 66.1839694,65.6580361 C67.2943583,65.6580361 68.3280806,65.4650917 69.285775,65.0734528 C70.2447472,64.6824528 71.0772194,64.1477028 71.781275,63.4717583 C72.4872472,62.7932583 73.0437194,61.9991194 73.4462194,61.0899806 L73.4462194,61.0899806 Z" id="Fill-5" fill="#FEFEFE"></path>
                        <polygon id="Fill-7" fill="#FEFEFE" points="92.235175 50.9685111 90.2009528 57.8710667 87.8805083 50.9276222 83.7296472 50.9276222 81.407925 57.8710667 79.3743417 50.9685111 74.341175 50.9685111 79.044675 65.4527611 83.2357861 65.4527611 85.7625917 58.3048722 88.2893972 65.4527611 92.4817861 65.4527611 97.1872028 50.9685111"></polygon>
                        <polygon id="Fill-9" fill="#FEFEFE" points="102.815558 50.9685111 102.815558 65.3518167 107.499253 65.3518167 107.499253 58.2218167 110.818281 63.3354833 110.900058 63.3354833 114.217808 58.2218167 114.217808 65.3518167 119.005642 65.3518167 119.005642 50.9685111 113.992281 50.9685111 110.910281 56.0240389 107.828919 50.9685111"></polygon>
                        <polygon id="Fill-11" fill="#FEFEFE" points="132.810881 61.4054 125.167214 61.4054 125.167214 59.8452333 132.194353 59.8452333 132.194353 56.3728722 125.167214 56.3728722 125.167214 54.9130111 132.708019 54.9130111 132.708019 50.9704278 120.444547 50.9704278 120.444547 65.3518167 132.810881 65.3518167"></polygon>
                        <polygon id="Fill-13" fill="#FEFEFE" points="28.9777 76.7717639 33.2103389 76.7717639 33.2103389 87.0853472 38.0167 87.0853472 38.0167 76.7717639 42.2493389 76.7717639 42.2493389 72.7045972 28.9777 72.7045972"></polygon>
                        <polygon id="Fill-15" fill="#FEFEFE" points="52.3377139 87.0850917 57.1447139 87.0850917 57.1447139 72.7030639 52.3377139 72.7030639 52.3377139 77.779675 47.9402417 77.779675 47.9402417 72.7030639 43.1326028 72.7030639 43.1326028 87.0850917 47.9402417 87.0850917 47.9402417 81.9273417 52.3377139 81.9273417"></polygon>
                        <polygon id="Fill-17" fill="#FEFEFE" points="70.84805 76.6482667 70.84805 72.7031278 58.5826611 72.7031278 58.5826611 87.0851556 70.9502722 87.0851556 70.9502722 83.1393778 63.3091611 83.1393778 63.3091611 81.57985 70.3356611 81.57985 70.3356611 78.1074889 63.3091611 78.1074889 63.3091611 76.6482667"></polygon>
                        <path d="M83.0929944,81.74315 L84.4078278,78.2497056 L85.7226611,81.74315 L83.0929944,81.74315 Z M82.0643833,72.60065 L76.0038833,87.0849 L81.1399111,87.0849 L81.8803833,85.1529 L86.9141889,85.1529 L87.6744667,87.0849 L92.8929111,87.0849 L86.8311333,72.60065 L82.0643833,72.60065 Z" id="Fill-19" fill="#FEFEFE"></path>
                        <path d="M98.0906556,76.5465556 L99.4061278,76.5465556 C100.04885,76.5465556 100.549739,76.6788056 100.904961,76.9465 C101.260822,77.2116389 101.439072,77.6083889 101.439072,78.1265278 L101.439072,78.1680556 C101.439072,78.68875 101.249961,79.0829444 100.874294,79.3506389 C100.49735,79.6164167 100.000933,79.7505833 99.3844056,79.7505833 L98.0906556,79.7505833 L98.0906556,76.5465556 Z M98.0906556,83.1814167 L99.6501833,83.1814167 C100.624489,83.1814167 101.511267,83.0696111 102.311794,82.8415278 C103.112961,82.6166389 103.801683,82.2761111 104.377961,81.8250556 C104.951044,81.3733611 105.397628,80.8156111 105.713239,80.1518056 C106.026933,79.488 106.184739,78.7245278 106.184739,77.8613889 L106.184739,77.8192222 C106.184739,76.9695 106.026933,76.2232778 105.713239,75.5792778 C105.397628,74.9365556 104.959989,74.4024444 104.397767,73.9782222 C103.835544,73.5520833 103.161517,73.2345556 102.375044,73.0218056 C101.586017,72.8096944 100.713294,72.703 99.7543222,72.703 L93.2830167,72.703 L93.2830167,87.0850278 L98.0906556,87.0850278 L98.0906556,83.1814167 Z" id="Fill-21" fill="#FEFEFE"></path>
                        <path d="M115.162853,78.1681194 C115.162853,78.688175 114.974381,79.0830083 114.598075,79.3507028 C114.221769,79.6164806 113.724075,79.7506472 113.108186,79.7506472 L111.814436,79.7506472 L111.814436,76.5466194 L113.129269,76.5466194 C113.773269,76.5466194 114.271603,76.6788694 114.629381,76.9465639 C114.985881,77.2117028 115.162853,77.6084528 115.162853,78.1265917 L115.162853,78.1681194 Z M119.908519,77.8192861 C119.908519,76.9708417 119.751353,76.2233417 119.435742,75.5793417 C119.120769,74.9366194 118.684408,74.4018694 118.121547,73.978925 C117.559964,73.5515083 116.885936,73.2346194 116.097547,73.0218694 C115.309797,72.8097583 114.437075,72.7030639 113.479381,72.7030639 L107.004881,72.7030639 L107.004881,87.0850917 L111.814436,87.0850917 L111.814436,83.1814806 L113.375242,83.1814806 C114.348269,83.1814806 115.235047,83.069675 116.036853,82.8422306 C116.836742,82.6167028 117.524825,82.2780917 118.101742,81.8251194 C118.677381,81.373425 119.120769,80.815675 119.435742,80.1518694 C119.751353,79.487425 119.908519,78.7245917 119.908519,77.8614528 L119.908519,77.8192861 Z" id="Fill-23" fill="#FEFEFE"></path>
                        <path d="M131.568689,79.2880278 C131.026911,78.9257778 130.380356,78.6280556 129.627106,78.3948611 C128.872578,78.1610278 128.038189,77.9629722 127.120106,77.7981389 C126.736133,77.7297778 126.422439,77.6633333 126.175828,77.5930556 C125.929217,77.5253333 125.733078,77.4531389 125.588689,77.3796667 C125.445578,77.303 125.345911,77.2237778 125.292883,77.142 C125.236022,77.0589444 125.209189,76.9707778 125.209189,76.8743056 L125.209189,76.8321389 C125.209189,76.6564444 125.295439,76.5114167 125.465383,76.4015278 C125.638522,76.2922778 125.901744,76.2366944 126.256967,76.2366944 C126.927161,76.2366944 127.643994,76.3504167 128.404272,76.5759444 C129.163911,76.8021111 129.885856,77.1618056 130.572022,77.6556667 L132.91355,74.4101111 C132.078522,73.7507778 131.136161,73.2581944 130.088383,72.9291667 C129.041244,72.6007778 127.81905,72.4359444 126.422439,72.4359444 C125.435994,72.4359444 124.562633,72.5611667 123.801717,72.8065 C123.042078,73.0524722 122.405744,73.3936389 121.892078,73.8344722 C121.377772,74.2721111 120.987411,74.7845 120.720356,75.3754722 C120.4533,75.96325 120.319772,76.6015 120.319772,77.28575 L120.319772,77.326 C120.319772,78.0933056 120.483328,78.7341111 120.811717,79.2477778 C121.141383,79.7601667 121.582217,80.1888611 122.137411,80.5306667 C122.691967,80.87375 123.336606,81.1548611 124.07005,81.3733611 C124.800939,81.5912222 125.572078,81.7848056 126.380272,81.9483611 C127.146939,82.1004167 127.671467,82.2441667 127.952578,82.3808889 C128.232411,82.5176111 128.372967,82.6875556 128.372967,82.8932778 L128.372967,82.9348056 C128.372967,83.1264722 128.277772,83.2785278 128.086106,83.3865 C127.893161,83.4963889 127.578189,83.5513333 127.141189,83.5513333 C126.292106,83.5513333 125.435994,83.421 124.572217,83.1609722 C123.709717,82.9003056 122.888106,82.4696944 122.106744,81.8665833 L119.540328,84.9268611 C120.455217,85.7376111 121.547717,86.3432778 122.815911,86.7457778 C124.082189,87.1495556 125.45005,87.3520833 126.914383,87.3520833 C127.873994,87.3520833 128.746717,87.2377222 129.534467,87.0128333 C130.321578,86.7873056 130.989217,86.4653056 131.536744,86.0468333 C132.08555,85.6296389 132.509133,85.1191667 132.810689,84.5160556 C133.111606,83.9135833 133.263022,83.2363611 133.263022,82.48375 L133.263022,82.4435 C133.263022,81.7164444 133.115439,81.0999167 132.82155,80.5932778 C132.526383,80.0866389 132.109189,79.6521944 131.568689,79.2880278" id="Fill-25" fill="#FEFEFE"></path>
                        <g id="Group-29" transform="translate(0.000000, 0.465750)">
                            <mask id="mask-2" fill="white">
                                <use xlink:href="#path-1"></use>
                            </mask>
                            <g id="Clip-28"></g>
                            <path d="M156.998831,68.8789306 C156.998831,71.3265139 156.089053,73.4520972 154.212636,75.3004028 L85.6713583,130.281264 C84.4287194,131.302208 82.8353306,131.873375 81.1346083,131.873375 C79.4530528,131.873375 77.8749972,131.315625 76.5665528,130.256986 L76.4304694,130.139431 L9.00341389,75.8639028 L8.04571944,75.0307917 C6.39483056,73.3524306 5.48760833,71.1386806 5.48760833,68.784375 C5.48760833,68.7773472 5.489525,68.772875 5.489525,68.767125 C5.489525,68.7607361 5.48760833,68.755625 5.48760833,68.749875 C5.48760833,66.3942917 6.39483056,64.1805417 8.04571944,62.5034583 L9.00341389,61.6703472 L76.4304694,7.39481944 L76.5665528,7.27918056 C77.8749972,6.21990278 79.4530528,5.660875 81.1346083,5.660875 C82.8353306,5.660875 84.4287194,6.23268056 85.6713583,7.25234722 L154.012025,62.0658194 C155.952331,63.7639861 156.998831,66.1809028 156.998831,68.6278472 L156.998831,68.8789306 Z M162.261997,68.749875 C162.261997,64.7574583 160.657747,61.044875 157.741858,58.2938194 L156.897886,57.5539861 L89.3309139,3.16154167 L89.226775,3.07081944 C86.949775,1.20206944 84.0760528,0.172819444 81.1346083,0.172819444 C78.1957194,0.172819444 75.426775,1.37776389 73.1523306,3.24395833 L5.52146944,57.4294028 L4.36891389,58.4292639 L4.23346944,58.5564028 C1.50285833,61.2774306 0.000191666667,64.8967361 0.000191666667,68.749875 C0.000191666667,68.755625 0.000830555555,68.7607361 0.000830555555,68.767125 C0.000830555555,68.772875 0.000191666667,68.7773472 0.000191666667,68.784375 C0.000191666667,72.6381528 1.50285833,76.2580972 4.23346944,78.9778472 L4.36891389,79.1069028 L5.52146944,80.1067639 L73.0494694,134.469181 C75.3239139,136.334736 78.1957194,137.360792 81.1346083,137.360792 C84.0760528,137.360792 86.949775,136.332181 89.226775,134.462792 L89.3309139,134.372708 L156.897886,79.979625 L157.741858,79.2417083 C160.657747,76.4900139 162.261997,72.7767917 162.261997,68.784375 C162.261997,68.7773472 162.260719,68.772875 162.260719,68.767125 C162.260719,68.7607361 162.261997,68.755625 162.261997,68.749875 L162.261997,68.749875 Z" id="Fill-27" fill="#FEFEFE" mask="url(#mask-2)"></path>
                        </g>
                        <path d="M48.7701583,48.1471778 C48.4820194,48.1471778 48.1906861,48.0622056 47.9364083,47.8845944 C47.2751583,47.4220389 47.1128806,46.5109833 47.5741583,45.8522889 C55.2299639,34.8844833 67.7751861,28.3358722 81.1311583,28.3358722 C94.4864917,28.3358722 107.029797,34.8819278 114.686242,45.8478167 C115.146242,46.5090667 114.985242,47.4182056 114.324631,47.8807611 C113.662103,48.3426778 112.753603,48.1816778 112.291047,47.5204278 C105.180853,37.3346222 93.5332694,31.2555944 81.1311583,31.2555944 C68.7277694,31.2555944 57.0801861,37.3371778 49.9687139,47.5217056 C49.6850472,47.9286778 49.2327139,48.1471778 48.7701583,48.1471778" id="Fill-30" fill="#FEFEFE"></path>
                        <path d="M81.130775,110.128792 C67.7492472,110.128792 55.1912472,103.561014 47.5367194,92.5638194 C47.0760806,91.9012917 47.240275,90.9921528 47.9008861,90.5302361 C48.5640528,90.0689583 49.4744694,90.2344306 49.9338306,90.8950417 C57.044025,101.109597 68.7037472,107.209069 81.130775,107.209069 C93.5609972,107.209069 105.222636,101.109597 112.328997,90.8918472 C112.789636,90.2312361 113.699414,90.0664028 114.361942,90.5264028 C115.023192,90.9876806 115.186747,91.8987361 114.727386,92.5593472 C107.073497,103.561014 94.5148583,110.128792 81.130775,110.128792" id="Fill-32" fill="#FEFEFE"></path>
                    </g>
                </g>
            </g>
        </g>
    </g>
</svg>