<?xml version="1.0" encoding="UTF-8" standalone="no"?>
<svg width="206px" height="50px" viewBox="0 0 206 50" version="1.1" xmlns="http://www.w3.org/2000/svg" xmlns:xlink="http://www.w3.org/1999/xlink">
    <!-- Generator: sketchtool 40.3 (33839) - http://www.bohemiancoding.com/sketch -->
    <title>EB504187-1DFF-4136-B9F5-D573C2405AA1</title>
    <desc>Created with sketchtool.</desc>
    <defs>
        <polygon id="path-1" points="0 0 163.585159 0 206 0 206 50 0 50"></polygon>
        <mask id="mask-2" maskContentUnits="userSpaceOnUse" maskUnits="objectBoundingBox" x="0" y="0" width="206" height="50" fill="white">
            <use xlink:href="#path-1"></use>
        </mask>
    </defs>
    <g id="Welcome" stroke="none" stroke-width="1" fill="none" fill-rule="evenodd">
        <g id="랜딩" transform="translate(-746.000000, -614.000000)">
            <g id="Landing_main" transform="translate(0.000000, 206.000000)">
                <g id="Group-3" transform="translate(0.000000, 123.000000)">
                    <g id="Group-4" transform="translate(745.000000, 74.000000)">
                        <g id="회원가입" transform="translate(1.000000, 211.000000)">
                            <g id="회원가입_bt">
                                <use id="Rectangle-2" stroke="#407ABD" mask="url(#mask-2)" stroke-width="4" fill="#FFFFFF" xlink:href="#path-1"></use>
                                <g id="회원가입" transform="translate(61.000000, 16.000000)" fill="#407ABD">
                                    <text font-family=".AppleSDGothicNeoI-Bold, .Apple SD Gothic NeoI" font-size="16" font-weight="bold" line-spacing="28" letter-spacing="0.285714298">
                                        <tspan x="27.1374434" y="15">회원가입</tspan>
                                    </text>
                                    <g id="L_join" stroke="#979797">
                                        <path d="M23,7 C23,3.13400675 19.8659932,0 16,0 C12.1340068,0 9,3.13400675 9,7 C9,10.8659932 12.1340068,14 16,14 C19.8659932,14 23,10.8659932 23,7 Z M11,7 C11,4.23857625 13.2385763,2 16,2 C18.7614237,2 21,4.23857625 21,7 C21,9.76142375 18.7614237,12 16,12 C13.2385763,12 11,9.76142375 11,7 Z M16.0016135,14 C8.83504285,14 3,19.6024712 3,26.5208645 L3,31 C3,31.5522847 3.44771525,32 4,32 C4.55228475,32 5,31.5522847 5,31 L5,26.5208645 C5,20.7256497 9.92182241,16 16.0016135,16 C17.3223103,16 18.6094757,16.2222643 19.8203399,16.651035 C20.340949,16.8353842 20.9124306,16.5627918 21.0967799,16.0421827 C21.2811291,15.5215737 21.0085367,14.950092 20.4879276,14.7657428 C19.0632005,14.2612426 17.5503059,14 16.0016135,14 Z" id="Oval-74" stroke="none"></path>
                                        <path d="M25,23 L30.95346,23 C31.4965211,23 31.9453125,23.4477153 31.9453125,24 C31.9453125,24.5561352 31.4987386,25 30.9478618,25 L25,25 L25,30.95346 C25,31.4965211 24.5522847,31.9453125 24,31.9453125 C23.4438648,31.9453125 23,31.4987386 23,30.9478618 L23,25 L16.9974507,25 C16.4431111,25 16,24.5522847 16,24 C16,23.4438648 16.4473659,23 16.9992197,23 L18.456665,23 L23,23 L23,16.9974507 C23,16.4431111 23.4477153,16 24,16 C24.5561352,16 25,16.4473659 25,16.9992197 L25,18.456665 L25,23 L25,23 Z" id="Rectangle-372" stroke="none"></path>
                                    </g>
                                </g>
                            </g>
                        </g>
                    </g>
                </g>
            </g>
        </g>
    </g>
</svg>